solid OpenSCAD_Model
  facet normal -0.5 -0.707106 -0.5
    outer loop
      vertex 2.5 -8.32233 2.5
      vertex 10 -10 -2.62742
      vertex 4.87258 -10 2.5
    endloop
  endfacet
  facet normal -0.5 -0.707106 -0.5
    outer loop
      vertex 10 -10 -2.62742
      vertex 2.5 -8.32233 2.5
      vertex 10 -8.32233 -5
    endloop
  endfacet
  facet normal -0.5 -0.707107 -0.5
    outer loop
      vertex 2.5 -8.32233 2.5
      vertex 2.5 -9.22435 3.77565
      vertex 0.32233 -8.32233 4.67767
    endloop
  endfacet
  facet normal 0.5 -0.707107 0.5
    outer loop
      vertex 0.127416 -10 2.5
      vertex 0.32233 -8.32233 4.67767
      vertex -0.372584 -10 3
    endloop
  endfacet
  facet normal 0.5 -0.707107 0.5
    outer loop
      vertex 0.32233 -8.32233 4.67767
      vertex 0.127416 -10 2.5
      vertex 2.5 -8.32233 2.5
    endloop
  endfacet
  facet normal 0.5 -0.707107 0.5
    outer loop
      vertex 7.62742 -10 -5
      vertex 2.5 -8.32233 2.5
      vertex 2.5 -10 0.127416
    endloop
  endfacet
  facet normal 0.5 -0.707106 0.5
    outer loop
      vertex 2.5 -8.32233 2.5
      vertex 7.62742 -10 -5
      vertex 10 -8.32233 -5
    endloop
  endfacet
  facet normal -0.499981 -0.707078 -0.500059
    outer loop
      vertex 0 -8.32233 20
      vertex 2.5 -10 19.8726
      vertex 2.37258 -10 20
    endloop
  endfacet
  facet normal -0.499998 -0.707109 -0.499998
    outer loop
      vertex 2.5 -10 19.8726
      vertex 0 -8.32233 20
      vertex 2.5 -8.32233 17.5
    endloop
  endfacet
  facet normal -0.499999 -0.70711 -0.499997
    outer loop
      vertex 17.5 -8.32233 2.5
      vertex 25 -10 -2.62742
      vertex 19.8726 -10 2.5
    endloop
  endfacet
  facet normal -0.5 -0.707106 -0.5
    outer loop
      vertex 25 -10 -2.62742
      vertex 17.5 -8.32233 2.5
      vertex 25 -8.32233 -5
    endloop
  endfacet
  facet normal -0.499995 -0.70711 -0.500002
    outer loop
      vertex 17.5 -8.32233 2.5
      vertex 17.5 -9.22435 3.77565
      vertex 15.3223 -8.32233 4.67767
    endloop
  endfacet
  facet normal -0.5 -0.707105 -0.500002
    outer loop
      vertex 9.32233 -8.32233 10.6777
      vertex 4.87258 -10 17.5
      vertex 2.5 -8.32233 17.5
    endloop
  endfacet
  facet normal -0.5 -0.707105 -0.500002
    outer loop
      vertex 4.87258 -10 17.5
      vertex 9.32233 -8.32233 10.6777
      vertex 10 -10 12.3726
    endloop
  endfacet
  facet normal -0.500482 -0.706985 -0.499691
    outer loop
      vertex 10 -10 12.3726
      vertex 9.32233 -8.32233 10.6777
      vertex 10 -9.95837 12.3137
    endloop
  endfacet
  facet normal 0.500001 -0.707107 0.5
    outer loop
      vertex 0.127416 -10 17.5
      vertex 0 -8.32233 20
      vertex -2.37258 -10 20
    endloop
  endfacet
  facet normal 0.5 -0.707107 0.5
    outer loop
      vertex 0 -8.32233 20
      vertex 0.127416 -10 17.5
      vertex 2.5 -8.32233 17.5
    endloop
  endfacet
  facet normal 0.500001 -0.707105 0.500001
    outer loop
      vertex 15.1274 -10 2.5
      vertex 15.3223 -8.32233 4.67767
      vertex 14.6274 -10 3
    endloop
  endfacet
  facet normal 0.499997 -0.707107 0.500003
    outer loop
      vertex 15.3223 -8.32233 4.67767
      vertex 15.1274 -10 2.5
      vertex 17.5 -8.32233 2.5
    endloop
  endfacet
  facet normal 0.500001 -0.707108 0.499997
    outer loop
      vertex 5.27208 -10 12.3553
      vertex 2.5 -8.32233 17.5
      vertex 2.5 -10 15.1274
    endloop
  endfacet
  facet normal 0.499993 -0.707115 0.499995
    outer loop
      vertex 2.5 -8.32233 17.5
      vertex 5.27208 -10 12.3553
      vertex 9.32233 -8.32233 10.6777
    endloop
  endfacet
  facet normal 0.500001 -0.707106 0.5
    outer loop
      vertex 22.6274 -10 -5
      vertex 17.5 -8.32233 2.5
      vertex 17.5 -10 0.127416
    endloop
  endfacet
  facet normal 0.499998 -0.707109 0.499998
    outer loop
      vertex 17.5 -8.32233 2.5
      vertex 22.6274 -10 -5
      vertex 25 -8.32233 -5
    endloop
  endfacet
  facet normal -0.499998 -0.707109 -0.499998
    outer loop
      vertex 15 -8.32233 20
      vertex 17.5 -10 19.8726
      vertex 17.3726 -10 20
    endloop
  endfacet
  facet normal -0.499998 -0.707109 -0.499998
    outer loop
      vertex 17.5 -10 19.8726
      vertex 15 -8.32233 20
      vertex 17.5 -8.32233 17.5
    endloop
  endfacet
  facet normal -0.499995 -0.70711 -0.500002
    outer loop
      vertex 32.5 -8.32233 2.5
      vertex 32.5 -9.22435 3.77565
      vertex 30.3223 -8.32233 4.67767
    endloop
  endfacet
  facet normal -0.499998 -0.707109 -0.499998
    outer loop
      vertex 24.3223 -8.32233 10.6777
      vertex 19.8726 -10 17.5
      vertex 17.5 -8.32233 17.5
    endloop
  endfacet
  facet normal -0.499998 -0.707109 -0.499998
    outer loop
      vertex 19.8726 -10 17.5
      vertex 24.3223 -8.32233 10.6777
      vertex 25 -10 12.3726
    endloop
  endfacet
  facet normal -0.500465 -0.706993 -0.499696
    outer loop
      vertex 25 -10 12.3726
      vertex 24.3223 -8.32233 10.6777
      vertex 25 -9.95837 12.3137
    endloop
  endfacet
  facet normal -0.499999 -0.70711 -0.499997
    outer loop
      vertex 32.5 -8.32233 2.5
      vertex 40 -10 -2.62742
      vertex 34.8726 -10 2.5
    endloop
  endfacet
  facet normal -0.5 -0.707106 -0.5
    outer loop
      vertex 40 -10 -2.62742
      vertex 32.5 -8.32233 2.5
      vertex 40 -8.32233 -5
    endloop
  endfacet
  facet normal 0.499998 -0.707109 0.499998
    outer loop
      vertex 15.1274 -10 17.5
      vertex 15 -8.32233 20
      vertex 12.6274 -10 20
    endloop
  endfacet
  facet normal 0.499998 -0.707109 0.499998
    outer loop
      vertex 15 -8.32233 20
      vertex 15.1274 -10 17.5
      vertex 17.5 -8.32233 17.5
    endloop
  endfacet
  facet normal 0.500001 -0.707105 0.500001
    outer loop
      vertex 30.1274 -10 2.5
      vertex 30.3223 -8.32233 4.67767
      vertex 29.6274 -10 3
    endloop
  endfacet
  facet normal 0.499997 -0.707107 0.500003
    outer loop
      vertex 30.3223 -8.32233 4.67767
      vertex 30.1274 -10 2.5
      vertex 32.5 -8.32233 2.5
    endloop
  endfacet
  facet normal 0.499998 -0.707109 0.499998
    outer loop
      vertex 20.2721 -10 12.3553
      vertex 17.5 -8.32233 17.5
      vertex 17.5 -10 15.1274
    endloop
  endfacet
  facet normal 0.499998 -0.707109 0.499998
    outer loop
      vertex 17.5 -8.32233 17.5
      vertex 20.2721 -10 12.3553
      vertex 24.3223 -8.32233 10.6777
    endloop
  endfacet
  facet normal 0.500001 -0.707106 0.5
    outer loop
      vertex 37.6274 -10 -5
      vertex 32.5 -8.32233 2.5
      vertex 32.5 -10 0.127416
    endloop
  endfacet
  facet normal 0.499998 -0.707109 0.499998
    outer loop
      vertex 32.5 -8.32233 2.5
      vertex 37.6274 -10 -5
      vertex 40 -8.32233 -5
    endloop
  endfacet
  facet normal 0.499998 -0.707109 0.499998
    outer loop
      vertex 30.1274 -10 17.5
      vertex 30 -8.32233 20
      vertex 27.6274 -10 20
    endloop
  endfacet
  facet normal 0.499998 -0.707109 0.499998
    outer loop
      vertex 30 -8.32233 20
      vertex 30.1274 -10 17.5
      vertex 32.5 -8.32233 17.5
    endloop
  endfacet
  facet normal 0.500001 -0.707105 0.500001
    outer loop
      vertex 45.1274 -10 2.5
      vertex 45.3223 -8.32233 4.67767
      vertex 44.6274 -10 3
    endloop
  endfacet
  facet normal 0.499997 -0.707107 0.500003
    outer loop
      vertex 45.3223 -8.32233 4.67767
      vertex 45.1274 -10 2.5
      vertex 47.5 -8.32233 2.5
    endloop
  endfacet
  facet normal 0.499998 -0.707109 0.499998
    outer loop
      vertex 35.2721 -10 12.3553
      vertex 32.5 -8.32233 17.5
      vertex 32.5 -10 15.1274
    endloop
  endfacet
  facet normal 0.499998 -0.707109 0.499998
    outer loop
      vertex 32.5 -8.32233 17.5
      vertex 35.2721 -10 12.3553
      vertex 39.3223 -8.32233 10.6777
    endloop
  endfacet
  facet normal 0.500001 -0.707106 0.5
    outer loop
      vertex 52.6274 -10 -5
      vertex 47.5 -8.32233 2.5
      vertex 47.5 -10 0.127416
    endloop
  endfacet
  facet normal 0.499998 -0.707109 0.499998
    outer loop
      vertex 47.5 -8.32233 2.5
      vertex 52.6274 -10 -5
      vertex 55 -8.32233 -5
    endloop
  endfacet
  facet normal -0.499998 -0.707109 -0.499998
    outer loop
      vertex 30 -8.32233 20
      vertex 32.5 -10 19.8726
      vertex 32.3726 -10 20
    endloop
  endfacet
  facet normal -0.499998 -0.707109 -0.499998
    outer loop
      vertex 32.5 -10 19.8726
      vertex 30 -8.32233 20
      vertex 32.5 -8.32233 17.5
    endloop
  endfacet
  facet normal -0.499995 -0.70711 -0.500002
    outer loop
      vertex 47.5 -8.32233 2.5
      vertex 47.5 -9.22435 3.77565
      vertex 45.3223 -8.32233 4.67767
    endloop
  endfacet
  facet normal -0.499998 -0.707109 -0.499998
    outer loop
      vertex 39.3223 -8.32233 10.6777
      vertex 34.8726 -10 17.5
      vertex 32.5 -8.32233 17.5
    endloop
  endfacet
  facet normal -0.499998 -0.707109 -0.499998
    outer loop
      vertex 34.8726 -10 17.5
      vertex 39.3223 -8.32233 10.6777
      vertex 40 -10 12.3726
    endloop
  endfacet
  facet normal -0.500465 -0.706993 -0.499696
    outer loop
      vertex 40 -10 12.3726
      vertex 39.3223 -8.32233 10.6777
      vertex 40 -9.95837 12.3137
    endloop
  endfacet
  facet normal -0.499999 -0.70711 -0.499997
    outer loop
      vertex 47.5 -8.32233 2.5
      vertex 55 -10 -2.62742
      vertex 49.8726 -10 2.5
    endloop
  endfacet
  facet normal -0.5 -0.707106 -0.5
    outer loop
      vertex 55 -10 -2.62742
      vertex 47.5 -8.32233 2.5
      vertex 55 -8.32233 -5
    endloop
  endfacet
  facet normal 0.499998 -0.707109 0.499998
    outer loop
      vertex 45.1274 -10 17.5
      vertex 45 -8.32233 20
      vertex 42.6274 -10 20
    endloop
  endfacet
  facet normal 0.499998 -0.707109 0.499998
    outer loop
      vertex 45 -8.32233 20
      vertex 45.1274 -10 17.5
      vertex 47.5 -8.32233 17.5
    endloop
  endfacet
  facet normal 0.500001 -0.707105 0.500001
    outer loop
      vertex 60.1274 -10 2.5
      vertex 60.3223 -8.32233 4.67767
      vertex 59.6274 -10 3
    endloop
  endfacet
  facet normal 0.499997 -0.707107 0.500003
    outer loop
      vertex 60.3223 -8.32233 4.67767
      vertex 60.1274 -10 2.5
      vertex 62.5 -8.32233 2.5
    endloop
  endfacet
  facet normal 0.499998 -0.707109 0.499998
    outer loop
      vertex 50.2721 -10 12.3553
      vertex 47.5 -8.32233 17.5
      vertex 47.5 -10 15.1274
    endloop
  endfacet
  facet normal 0.499998 -0.707109 0.499998
    outer loop
      vertex 47.5 -8.32233 17.5
      vertex 50.2721 -10 12.3553
      vertex 54.3223 -8.32233 10.6777
    endloop
  endfacet
  facet normal 0.500001 -0.707106 0.5
    outer loop
      vertex 67.6274 -10 -5
      vertex 62.5 -8.32233 2.5
      vertex 62.5 -10 0.127416
    endloop
  endfacet
  facet normal 0.499998 -0.707109 0.499998
    outer loop
      vertex 62.5 -8.32233 2.5
      vertex 67.6274 -10 -5
      vertex 70 -8.32233 -5
    endloop
  endfacet
  facet normal -0.499998 -0.707109 -0.499998
    outer loop
      vertex 45 -8.32233 20
      vertex 47.5 -10 19.8726
      vertex 47.3726 -10 20
    endloop
  endfacet
  facet normal -0.499998 -0.707109 -0.499998
    outer loop
      vertex 47.5 -10 19.8726
      vertex 45 -8.32233 20
      vertex 47.5 -8.32233 17.5
    endloop
  endfacet
  facet normal -0.499999 -0.70711 -0.499997
    outer loop
      vertex 62.5 -8.32233 2.5
      vertex 70 -10 -2.62742
      vertex 64.8726 -10 2.5
    endloop
  endfacet
  facet normal -0.5 -0.707106 -0.5
    outer loop
      vertex 70 -10 -2.62742
      vertex 62.5 -8.32233 2.5
      vertex 70 -8.32233 -5
    endloop
  endfacet
  facet normal -0.499995 -0.70711 -0.500002
    outer loop
      vertex 62.5 -8.32233 2.5
      vertex 62.5 -9.22435 3.77565
      vertex 60.3223 -8.32233 4.67767
    endloop
  endfacet
  facet normal -0.499998 -0.707109 -0.499998
    outer loop
      vertex 54.3223 -8.32233 10.6777
      vertex 49.8726 -10 17.5
      vertex 47.5 -8.32233 17.5
    endloop
  endfacet
  facet normal -0.499998 -0.707109 -0.499998
    outer loop
      vertex 49.8726 -10 17.5
      vertex 54.3223 -8.32233 10.6777
      vertex 55 -10 12.3726
    endloop
  endfacet
  facet normal -0.500465 -0.706993 -0.499696
    outer loop
      vertex 55 -10 12.3726
      vertex 54.3223 -8.32233 10.6777
      vertex 55 -9.95837 12.3137
    endloop
  endfacet
  facet normal 0.499998 -0.707109 0.499998
    outer loop
      vertex 60.1274 -10 17.5
      vertex 60 -8.32233 20
      vertex 57.6274 -10 20
    endloop
  endfacet
  facet normal 0.499998 -0.707109 0.499998
    outer loop
      vertex 60 -8.32233 20
      vertex 60.1274 -10 17.5
      vertex 62.5 -8.32233 17.5
    endloop
  endfacet
  facet normal 0.500001 -0.707105 0.500001
    outer loop
      vertex 75.1274 -10 2.5
      vertex 75.3223 -8.32233 4.67767
      vertex 74.6274 -10 3
    endloop
  endfacet
  facet normal 0.499997 -0.707107 0.500003
    outer loop
      vertex 75.3223 -8.32233 4.67767
      vertex 75.1274 -10 2.5
      vertex 77.5 -8.32233 2.5
    endloop
  endfacet
  facet normal 0.499998 -0.707109 0.499998
    outer loop
      vertex 65.2721 -10 12.3553
      vertex 62.5 -8.32233 17.5
      vertex 62.5 -10 15.1274
    endloop
  endfacet
  facet normal 0.499998 -0.707109 0.499998
    outer loop
      vertex 62.5 -8.32233 17.5
      vertex 65.2721 -10 12.3553
      vertex 69.3223 -8.32233 10.6777
    endloop
  endfacet
  facet normal 0.500001 -0.707106 0.5
    outer loop
      vertex 82.6274 -10 -5
      vertex 77.5 -8.32233 2.5
      vertex 77.5 -10 0.127416
    endloop
  endfacet
  facet normal 0.499998 -0.707109 0.499998
    outer loop
      vertex 77.5 -8.32233 2.5
      vertex 82.6274 -10 -5
      vertex 85 -8.32233 -5
    endloop
  endfacet
  facet normal -0.499998 -0.707109 -0.499998
    outer loop
      vertex 60 -8.32233 20
      vertex 62.5 -10 19.8726
      vertex 62.3726 -10 20
    endloop
  endfacet
  facet normal -0.499998 -0.707109 -0.499998
    outer loop
      vertex 62.5 -10 19.8726
      vertex 60 -8.32233 20
      vertex 62.5 -8.32233 17.5
    endloop
  endfacet
  facet normal -0.499999 -0.70711 -0.499997
    outer loop
      vertex 77.5 -8.32233 2.5
      vertex 85 -10 -2.62742
      vertex 79.8726 -10 2.5
    endloop
  endfacet
  facet normal -0.5 -0.707106 -0.5
    outer loop
      vertex 85 -10 -2.62742
      vertex 77.5 -8.32233 2.5
      vertex 85 -8.32233 -5
    endloop
  endfacet
  facet normal -0.499995 -0.70711 -0.500002
    outer loop
      vertex 77.5 -8.32233 2.5
      vertex 77.5 -9.22435 3.77565
      vertex 75.3223 -8.32233 4.67767
    endloop
  endfacet
  facet normal -0.499998 -0.707109 -0.499998
    outer loop
      vertex 69.3223 -8.32233 10.6777
      vertex 64.8726 -10 17.5
      vertex 62.5 -8.32233 17.5
    endloop
  endfacet
  facet normal -0.499998 -0.707109 -0.499998
    outer loop
      vertex 64.8726 -10 17.5
      vertex 69.3223 -8.32233 10.6777
      vertex 70 -10 12.3726
    endloop
  endfacet
  facet normal -0.500465 -0.706993 -0.499696
    outer loop
      vertex 70 -10 12.3726
      vertex 69.3223 -8.32233 10.6777
      vertex 70 -9.95837 12.3137
    endloop
  endfacet
  facet normal 0.500001 -0.707106 0.5
    outer loop
      vertex 97.6274 -10 -5
      vertex 92.5 -8.32233 2.5
      vertex 92.5 -10 0.127416
    endloop
  endfacet
  facet normal 0.499998 -0.707109 0.499998
    outer loop
      vertex 92.5 -8.32233 2.5
      vertex 97.6274 -10 -5
      vertex 100 -8.32233 -5
    endloop
  endfacet
  facet normal 0.499998 -0.707109 0.499998
    outer loop
      vertex 75.1274 -10 17.5
      vertex 75 -8.32233 20
      vertex 72.6274 -10 20
    endloop
  endfacet
  facet normal 0.499998 -0.707109 0.499998
    outer loop
      vertex 75 -8.32233 20
      vertex 75.1274 -10 17.5
      vertex 77.5 -8.32233 17.5
    endloop
  endfacet
  facet normal 0.500001 -0.707105 0.500001
    outer loop
      vertex 90.1274 -10 2.5
      vertex 90.3223 -8.32233 4.67767
      vertex 89.6274 -10 3
    endloop
  endfacet
  facet normal 0.499997 -0.707107 0.500003
    outer loop
      vertex 90.3223 -8.32233 4.67767
      vertex 90.1274 -10 2.5
      vertex 92.5 -8.32233 2.5
    endloop
  endfacet
  facet normal 0.499998 -0.707109 0.499998
    outer loop
      vertex 80.2721 -10 12.3553
      vertex 77.5 -8.32233 17.5
      vertex 77.5 -10 15.1274
    endloop
  endfacet
  facet normal 0.499998 -0.707109 0.499998
    outer loop
      vertex 77.5 -8.32233 17.5
      vertex 80.2721 -10 12.3553
      vertex 84.3223 -8.32233 10.6777
    endloop
  endfacet
  facet normal -0.499998 -0.707109 -0.499998
    outer loop
      vertex 100 -8.32233 -5
      vertex 94.8726 -10 2.5
      vertex 92.5 -8.32233 2.5
    endloop
  endfacet
  facet normal -0.499949 -0.707159 -0.499976
    outer loop
      vertex 94.8726 -10 2.5
      vertex 100 -8.32233 -5
      vertex 102.373 -10 -5
    endloop
  endfacet
  facet normal -0.499998 -0.707109 -0.499998
    outer loop
      vertex 75 -8.32233 20
      vertex 77.5 -10 19.8726
      vertex 77.3726 -10 20
    endloop
  endfacet
  facet normal -0.499998 -0.707109 -0.499998
    outer loop
      vertex 77.5 -10 19.8726
      vertex 75 -8.32233 20
      vertex 77.5 -8.32233 17.5
    endloop
  endfacet
  facet normal -0.499995 -0.70711 -0.500002
    outer loop
      vertex 92.5 -8.32233 2.5
      vertex 92.5 -9.22435 3.77565
      vertex 90.3223 -8.32233 4.67767
    endloop
  endfacet
  facet normal -0.499998 -0.707109 -0.499998
    outer loop
      vertex 84.3223 -8.32233 10.6777
      vertex 79.8726 -10 17.5
      vertex 77.5 -8.32233 17.5
    endloop
  endfacet
  facet normal -0.499998 -0.707109 -0.499998
    outer loop
      vertex 79.8726 -10 17.5
      vertex 84.3223 -8.32233 10.6777
      vertex 85 -10 12.3726
    endloop
  endfacet
  facet normal -0.500465 -0.706993 -0.499696
    outer loop
      vertex 85 -10 12.3726
      vertex 84.3223 -8.32233 10.6777
      vertex 85 -9.95837 12.3137
    endloop
  endfacet
  facet normal 0.49997 -0.707125 0.500005
    outer loop
      vertex 104.627 -10 3
      vertex 110 -8.32233 0
      vertex 105.322 -8.32233 4.67767
    endloop
  endfacet
  facet normal 0.499971 -0.70712 0.50001
    outer loop
      vertex 110 -8.32233 0
      vertex 104.627 -10 3
      vertex 110 -10 -2.37258
    endloop
  endfacet
  facet normal 0.499998 -0.707109 0.499998
    outer loop
      vertex 90.1274 -10 17.5
      vertex 90 -8.32233 20
      vertex 87.6274 -10 20
    endloop
  endfacet
  facet normal 0.499998 -0.707109 0.499998
    outer loop
      vertex 90 -8.32233 20
      vertex 90.1274 -10 17.5
      vertex 92.5 -8.32233 17.5
    endloop
  endfacet
  facet normal 0.499998 -0.707109 0.499998
    outer loop
      vertex 95.2721 -10 12.3553
      vertex 92.5 -8.32233 17.5
      vertex 92.5 -10 15.1274
    endloop
  endfacet
  facet normal 0.499998 -0.707109 0.499998
    outer loop
      vertex 92.5 -8.32233 17.5
      vertex 95.2721 -10 12.3553
      vertex 99.3223 -8.32233 10.6777
    endloop
  endfacet
  facet normal -0.499925 -0.707188 -0.49996
    outer loop
      vertex 110 -8.32233 0
      vertex 109.373 -10 3
      vertex 105.322 -8.32233 4.67767
    endloop
  endfacet
  facet normal -0.500252 -0.706988 -0.499917
    outer loop
      vertex 109.373 -10 3
      vertex 110 -8.32233 0
      vertex 110 -10 2.37258
    endloop
  endfacet
  facet normal -0.499998 -0.707109 -0.499998
    outer loop
      vertex 90 -8.32233 20
      vertex 92.5 -10 19.8726
      vertex 92.3726 -10 20
    endloop
  endfacet
  facet normal -0.499998 -0.707109 -0.499998
    outer loop
      vertex 92.5 -10 19.8726
      vertex 90 -8.32233 20
      vertex 92.5 -8.32233 17.5
    endloop
  endfacet
  facet normal -0.499998 -0.707109 -0.499998
    outer loop
      vertex 99.3223 -8.32233 10.6777
      vertex 94.8726 -10 17.5
      vertex 92.5 -8.32233 17.5
    endloop
  endfacet
  facet normal -0.499998 -0.707109 -0.499998
    outer loop
      vertex 94.8726 -10 17.5
      vertex 99.3223 -8.32233 10.6777
      vertex 100 -10 12.3726
    endloop
  endfacet
  facet normal -0.500465 -0.706993 -0.499696
    outer loop
      vertex 100 -10 12.3726
      vertex 99.3223 -8.32233 10.6777
      vertex 100 -9.95837 12.3137
    endloop
  endfacet
  facet normal 0.5 -0.707105 -0.500002
    outer loop
      vertex -4.32233 -8.32233 10.6777
      vertex 0.127416 -10 17.5
      vertex -5 -10 12.3726
    endloop
  endfacet
  facet normal 0.500482 -0.706985 -0.499691
    outer loop
      vertex -4.32233 -8.32233 10.6777
      vertex -5 -10 12.3726
      vertex -5 -9.95837 12.3137
    endloop
  endfacet
  facet normal 0.499999 -0.707106 -0.500002
    outer loop
      vertex 0.127416 -10 17.5
      vertex -4.32233 -8.32233 10.6777
      vertex 2.5 -8.32233 17.5
    endloop
  endfacet
  facet normal 0.499981 -0.707078 -0.500059
    outer loop
      vertex 2.5 -10 19.8726
      vertex 5 -8.32233 20
      vertex 2.62742 -10 20
    endloop
  endfacet
  facet normal 0.499998 -0.707109 -0.499998
    outer loop
      vertex 5 -8.32233 20
      vertex 2.5 -10 19.8726
      vertex 2.5 -8.32233 17.5
    endloop
  endfacet
  facet normal -0.5 -0.707106 0.5
    outer loop
      vertex 4.87258 -10 17.5
      vertex 5 -8.32233 20
      vertex 2.5 -8.32233 17.5
    endloop
  endfacet
  facet normal -0.5 -0.707106 0.5
    outer loop
      vertex 5 -8.32233 20
      vertex 4.87258 -10 17.5
      vertex 7.37258 -10 20
    endloop
  endfacet
  facet normal -0.500002 -0.707108 0.499997
    outer loop
      vertex 2.5 -8.32233 17.5
      vertex -0.272076 -10 12.3553
      vertex 2.5 -10 15.1274
    endloop
  endfacet
  facet normal -0.499993 -0.707115 0.499995
    outer loop
      vertex -0.272076 -10 12.3553
      vertex 2.5 -8.32233 17.5
      vertex -4.32233 -8.32233 10.6777
    endloop
  endfacet
  facet normal 0.5 -0.707107 -0.5
    outer loop
      vertex -5 -10 -2.62742
      vertex 2.5 -8.32233 2.5
      vertex 0.127416 -10 2.5
    endloop
  endfacet
  facet normal 0.5 -0.707106 -0.5
    outer loop
      vertex 2.5 -8.32233 2.5
      vertex -5 -10 -2.62742
      vertex -5 -8.32233 -5
    endloop
  endfacet
  facet normal 0.5 -0.707107 -0.5
    outer loop
      vertex 2.5 -8.32233 2.5
      vertex 4.67767 -8.32233 4.67767
      vertex 2.5 -9.22435 3.77565
    endloop
  endfacet
  facet normal 0.499998 -0.707109 -0.499998
    outer loop
      vertex 17.5 -10 19.8726
      vertex 20 -8.32233 20
      vertex 17.6274 -10 20
    endloop
  endfacet
  facet normal 0.499998 -0.707109 -0.499998
    outer loop
      vertex 20 -8.32233 20
      vertex 17.5 -10 19.8726
      vertex 17.5 -8.32233 17.5
    endloop
  endfacet
  facet normal 0.499998 -0.707109 -0.499998
    outer loop
      vertex 10.6777 -8.32233 10.6777
      vertex 15.1274 -10 17.5
      vertex 10 -10 12.3726
    endloop
  endfacet
  facet normal 0.500465 -0.706993 -0.499696
    outer loop
      vertex 10.6777 -8.32233 10.6777
      vertex 10 -10 12.3726
      vertex 10 -9.95837 12.3137
    endloop
  endfacet
  facet normal 0.499998 -0.707109 -0.499998
    outer loop
      vertex 15.1274 -10 17.5
      vertex 10.6777 -8.32233 10.6777
      vertex 17.5 -8.32233 17.5
    endloop
  endfacet
  facet normal -0.5 -0.707107 0.5
    outer loop
      vertex -5 -8.32233 -5
      vertex 2.5 -10 0.127416
      vertex 2.5 -8.32233 2.5
    endloop
  endfacet
  facet normal -0.5 -0.707106 0.500001
    outer loop
      vertex 2.5 -10 0.127416
      vertex -5 -8.32233 -5
      vertex -2.62742 -10 -5
    endloop
  endfacet
  facet normal -0.5 -0.707106 0.5
    outer loop
      vertex 4.87258 -10 2.5
      vertex 4.67767 -8.32233 4.67767
      vertex 2.5 -8.32233 2.5
    endloop
  endfacet
  facet normal -0.5 -0.707106 0.5
    outer loop
      vertex 4.67767 -8.32233 4.67767
      vertex 4.87258 -10 2.5
      vertex 5.37258 -10 3
    endloop
  endfacet
  facet normal -0.499998 -0.707109 0.499998
    outer loop
      vertex 19.8726 -10 17.5
      vertex 20 -8.32233 20
      vertex 17.5 -8.32233 17.5
    endloop
  endfacet
  facet normal -0.499998 -0.707109 0.499998
    outer loop
      vertex 20 -8.32233 20
      vertex 19.8726 -10 17.5
      vertex 22.3726 -10 20
    endloop
  endfacet
  facet normal -0.499998 -0.707109 0.499998
    outer loop
      vertex 17.5 -8.32233 17.5
      vertex 14.7279 -10 12.3553
      vertex 17.5 -10 15.1274
    endloop
  endfacet
  facet normal -0.499998 -0.707109 0.499998
    outer loop
      vertex 14.7279 -10 12.3553
      vertex 17.5 -8.32233 17.5
      vertex 10.6777 -8.32233 10.6777
    endloop
  endfacet
  facet normal 0.499999 -0.70711 -0.499997
    outer loop
      vertex 10 -10 -2.62742
      vertex 17.5 -8.32233 2.5
      vertex 15.1274 -10 2.5
    endloop
  endfacet
  facet normal 0.5 -0.707106 -0.5
    outer loop
      vertex 17.5 -8.32233 2.5
      vertex 10 -10 -2.62742
      vertex 10 -8.32233 -5
    endloop
  endfacet
  facet normal 0.499995 -0.70711 -0.500002
    outer loop
      vertex 17.5 -8.32233 2.5
      vertex 19.6777 -8.32233 4.67767
      vertex 17.5 -9.22435 3.77565
    endloop
  endfacet
  facet normal 0.499998 -0.707109 -0.499998
    outer loop
      vertex 32.5 -10 19.8726
      vertex 35 -8.32233 20
      vertex 32.6274 -10 20
    endloop
  endfacet
  facet normal 0.499998 -0.707109 -0.499998
    outer loop
      vertex 35 -8.32233 20
      vertex 32.5 -10 19.8726
      vertex 32.5 -8.32233 17.5
    endloop
  endfacet
  facet normal 0.499998 -0.707109 -0.499998
    outer loop
      vertex 25.6777 -8.32233 10.6777
      vertex 30.1274 -10 17.5
      vertex 25 -10 12.3726
    endloop
  endfacet
  facet normal 0.500465 -0.706993 -0.499696
    outer loop
      vertex 25.6777 -8.32233 10.6777
      vertex 25 -10 12.3726
      vertex 25 -9.95837 12.3137
    endloop
  endfacet
  facet normal 0.499998 -0.707109 -0.499998
    outer loop
      vertex 30.1274 -10 17.5
      vertex 25.6777 -8.32233 10.6777
      vertex 32.5 -8.32233 17.5
    endloop
  endfacet
  facet normal -0.5 -0.707107 0.5
    outer loop
      vertex 10 -8.32233 -5
      vertex 17.5 -10 0.127416
      vertex 17.5 -8.32233 2.5
    endloop
  endfacet
  facet normal -0.499999 -0.70711 0.499997
    outer loop
      vertex 17.5 -10 0.127416
      vertex 10 -8.32233 -5
      vertex 12.3726 -10 -5
    endloop
  endfacet
  facet normal -0.499997 -0.707107 0.500003
    outer loop
      vertex 19.8726 -10 2.5
      vertex 19.6777 -8.32233 4.67767
      vertex 17.5 -8.32233 2.5
    endloop
  endfacet
  facet normal -0.500001 -0.707105 0.500001
    outer loop
      vertex 19.6777 -8.32233 4.67767
      vertex 19.8726 -10 2.5
      vertex 20.3726 -10 3
    endloop
  endfacet
  facet normal -0.499998 -0.707109 0.499998
    outer loop
      vertex 34.8726 -10 17.5
      vertex 35 -8.32233 20
      vertex 32.5 -8.32233 17.5
    endloop
  endfacet
  facet normal -0.499998 -0.707109 0.499998
    outer loop
      vertex 35 -8.32233 20
      vertex 34.8726 -10 17.5
      vertex 37.3726 -10 20
    endloop
  endfacet
  facet normal -0.499998 -0.707109 0.499998
    outer loop
      vertex 32.5 -8.32233 17.5
      vertex 29.7279 -10 12.3553
      vertex 32.5 -10 15.1274
    endloop
  endfacet
  facet normal -0.499998 -0.707109 0.499998
    outer loop
      vertex 29.7279 -10 12.3553
      vertex 32.5 -8.32233 17.5
      vertex 25.6777 -8.32233 10.6777
    endloop
  endfacet
  facet normal 0.499999 -0.70711 -0.499997
    outer loop
      vertex 25 -10 -2.62742
      vertex 32.5 -8.32233 2.5
      vertex 30.1274 -10 2.5
    endloop
  endfacet
  facet normal 0.5 -0.707106 -0.5
    outer loop
      vertex 32.5 -8.32233 2.5
      vertex 25 -10 -2.62742
      vertex 25 -8.32233 -5
    endloop
  endfacet
  facet normal 0.499995 -0.70711 -0.500002
    outer loop
      vertex 32.5 -8.32233 2.5
      vertex 34.6777 -8.32233 4.67767
      vertex 32.5 -9.22435 3.77565
    endloop
  endfacet
  facet normal 0.499998 -0.707109 -0.499998
    outer loop
      vertex 47.5 -10 19.8726
      vertex 50 -8.32233 20
      vertex 47.6274 -10 20
    endloop
  endfacet
  facet normal 0.499998 -0.707109 -0.499998
    outer loop
      vertex 50 -8.32233 20
      vertex 47.5 -10 19.8726
      vertex 47.5 -8.32233 17.5
    endloop
  endfacet
  facet normal 0.499998 -0.707109 -0.499998
    outer loop
      vertex 40.6777 -8.32233 10.6777
      vertex 45.1274 -10 17.5
      vertex 40 -10 12.3726
    endloop
  endfacet
  facet normal 0.500465 -0.706993 -0.499696
    outer loop
      vertex 40.6777 -8.32233 10.6777
      vertex 40 -10 12.3726
      vertex 40 -9.95837 12.3137
    endloop
  endfacet
  facet normal 0.499998 -0.707109 -0.499998
    outer loop
      vertex 45.1274 -10 17.5
      vertex 40.6777 -8.32233 10.6777
      vertex 47.5 -8.32233 17.5
    endloop
  endfacet
  facet normal -0.5 -0.707107 0.5
    outer loop
      vertex 25 -8.32233 -5
      vertex 32.5 -10 0.127416
      vertex 32.5 -8.32233 2.5
    endloop
  endfacet
  facet normal -0.499999 -0.70711 0.499997
    outer loop
      vertex 32.5 -10 0.127416
      vertex 25 -8.32233 -5
      vertex 27.3726 -10 -5
    endloop
  endfacet
  facet normal -0.499997 -0.707107 0.500003
    outer loop
      vertex 34.8726 -10 2.5
      vertex 34.6777 -8.32233 4.67767
      vertex 32.5 -8.32233 2.5
    endloop
  endfacet
  facet normal -0.500001 -0.707105 0.500001
    outer loop
      vertex 34.6777 -8.32233 4.67767
      vertex 34.8726 -10 2.5
      vertex 35.3726 -10 3
    endloop
  endfacet
  facet normal -0.499998 -0.707109 0.499998
    outer loop
      vertex 49.8726 -10 17.5
      vertex 50 -8.32233 20
      vertex 47.5 -8.32233 17.5
    endloop
  endfacet
  facet normal -0.499998 -0.707109 0.499998
    outer loop
      vertex 50 -8.32233 20
      vertex 49.8726 -10 17.5
      vertex 52.3726 -10 20
    endloop
  endfacet
  facet normal -0.499998 -0.707109 0.499998
    outer loop
      vertex 47.5 -8.32233 17.5
      vertex 44.7279 -10 12.3553
      vertex 47.5 -10 15.1274
    endloop
  endfacet
  facet normal -0.499998 -0.707109 0.499998
    outer loop
      vertex 44.7279 -10 12.3553
      vertex 47.5 -8.32233 17.5
      vertex 40.6777 -8.32233 10.6777
    endloop
  endfacet
  facet normal 0.499999 -0.70711 -0.499997
    outer loop
      vertex 40 -10 -2.62742
      vertex 47.5 -8.32233 2.5
      vertex 45.1274 -10 2.5
    endloop
  endfacet
  facet normal 0.5 -0.707106 -0.5
    outer loop
      vertex 47.5 -8.32233 2.5
      vertex 40 -10 -2.62742
      vertex 40 -8.32233 -5
    endloop
  endfacet
  facet normal 0.499995 -0.70711 -0.500002
    outer loop
      vertex 49.6777 -8.32233 4.67767
      vertex 47.5 -9.22435 3.77565
      vertex 47.5 -8.32233 2.5
    endloop
  endfacet
  facet normal 0.499998 -0.707109 -0.499998
    outer loop
      vertex 62.5 -10 19.8726
      vertex 65 -8.32233 20
      vertex 62.6274 -10 20
    endloop
  endfacet
  facet normal 0.499998 -0.707109 -0.499998
    outer loop
      vertex 65 -8.32233 20
      vertex 62.5 -10 19.8726
      vertex 62.5 -8.32233 17.5
    endloop
  endfacet
  facet normal 0.499998 -0.707109 -0.499998
    outer loop
      vertex 55.6777 -8.32233 10.6777
      vertex 60.1274 -10 17.5
      vertex 55 -10 12.3726
    endloop
  endfacet
  facet normal 0.500465 -0.706993 -0.499696
    outer loop
      vertex 55.6777 -8.32233 10.6777
      vertex 55 -10 12.3726
      vertex 55 -9.95837 12.3137
    endloop
  endfacet
  facet normal 0.499998 -0.707109 -0.499998
    outer loop
      vertex 60.1274 -10 17.5
      vertex 55.6777 -8.32233 10.6777
      vertex 62.5 -8.32233 17.5
    endloop
  endfacet
  facet normal -0.5 -0.707107 0.5
    outer loop
      vertex 40 -8.32233 -5
      vertex 47.5 -10 0.127416
      vertex 47.5 -8.32233 2.5
    endloop
  endfacet
  facet normal -0.499999 -0.70711 0.499997
    outer loop
      vertex 47.5 -10 0.127416
      vertex 40 -8.32233 -5
      vertex 42.3726 -10 -5
    endloop
  endfacet
  facet normal -0.499997 -0.707107 0.500003
    outer loop
      vertex 49.8726 -10 2.5
      vertex 49.6777 -8.32233 4.67767
      vertex 47.5 -8.32233 2.5
    endloop
  endfacet
  facet normal -0.500001 -0.707105 0.500001
    outer loop
      vertex 49.6777 -8.32233 4.67767
      vertex 49.8726 -10 2.5
      vertex 50.3726 -10 3
    endloop
  endfacet
  facet normal -0.499998 -0.707109 0.499998
    outer loop
      vertex 64.8726 -10 17.5
      vertex 65 -8.32233 20
      vertex 62.5 -8.32233 17.5
    endloop
  endfacet
  facet normal -0.499998 -0.707109 0.499998
    outer loop
      vertex 65 -8.32233 20
      vertex 64.8726 -10 17.5
      vertex 67.3726 -10 20
    endloop
  endfacet
  facet normal -0.499998 -0.707109 0.499998
    outer loop
      vertex 62.5 -8.32233 17.5
      vertex 59.7279 -10 12.3553
      vertex 62.5 -10 15.1274
    endloop
  endfacet
  facet normal -0.499998 -0.707109 0.499998
    outer loop
      vertex 59.7279 -10 12.3553
      vertex 62.5 -8.32233 17.5
      vertex 55.6777 -8.32233 10.6777
    endloop
  endfacet
  facet normal 0.499999 -0.70711 -0.499997
    outer loop
      vertex 55 -10 -2.62742
      vertex 62.5 -8.32233 2.5
      vertex 60.1274 -10 2.5
    endloop
  endfacet
  facet normal 0.5 -0.707106 -0.5
    outer loop
      vertex 62.5 -8.32233 2.5
      vertex 55 -10 -2.62742
      vertex 55 -8.32233 -5
    endloop
  endfacet
  facet normal 0.499995 -0.70711 -0.500002
    outer loop
      vertex 62.5 -8.32233 2.5
      vertex 64.6777 -8.32233 4.67767
      vertex 62.5 -9.22435 3.77565
    endloop
  endfacet
  facet normal 0.499998 -0.707109 -0.499998
    outer loop
      vertex 77.5 -10 19.8726
      vertex 80 -8.32233 20
      vertex 77.6274 -10 20
    endloop
  endfacet
  facet normal 0.499998 -0.707109 -0.499998
    outer loop
      vertex 80 -8.32233 20
      vertex 77.5 -10 19.8726
      vertex 77.5 -8.32233 17.5
    endloop
  endfacet
  facet normal 0.499998 -0.707109 -0.499998
    outer loop
      vertex 70.6777 -8.32233 10.6777
      vertex 75.1274 -10 17.5
      vertex 70 -10 12.3726
    endloop
  endfacet
  facet normal 0.500465 -0.706993 -0.499696
    outer loop
      vertex 70.6777 -8.32233 10.6777
      vertex 70 -10 12.3726
      vertex 70 -9.95837 12.3137
    endloop
  endfacet
  facet normal 0.499998 -0.707109 -0.499998
    outer loop
      vertex 75.1274 -10 17.5
      vertex 70.6777 -8.32233 10.6777
      vertex 77.5 -8.32233 17.5
    endloop
  endfacet
  facet normal -0.5 -0.707107 0.5
    outer loop
      vertex 55 -8.32233 -5
      vertex 62.5 -10 0.127416
      vertex 62.5 -8.32233 2.5
    endloop
  endfacet
  facet normal -0.499999 -0.70711 0.499997
    outer loop
      vertex 62.5 -10 0.127416
      vertex 55 -8.32233 -5
      vertex 57.3726 -10 -5
    endloop
  endfacet
  facet normal -0.499997 -0.707107 0.500003
    outer loop
      vertex 64.8726 -10 2.5
      vertex 64.6777 -8.32233 4.67767
      vertex 62.5 -8.32233 2.5
    endloop
  endfacet
  facet normal -0.500001 -0.707105 0.500001
    outer loop
      vertex 64.6777 -8.32233 4.67767
      vertex 64.8726 -10 2.5
      vertex 65.3726 -10 3
    endloop
  endfacet
  facet normal -0.499998 -0.707109 0.499998
    outer loop
      vertex 79.8726 -10 17.5
      vertex 80 -8.32233 20
      vertex 77.5 -8.32233 17.5
    endloop
  endfacet
  facet normal -0.499998 -0.707109 0.499998
    outer loop
      vertex 80 -8.32233 20
      vertex 79.8726 -10 17.5
      vertex 82.3726 -10 20
    endloop
  endfacet
  facet normal -0.499998 -0.707109 0.499998
    outer loop
      vertex 77.5 -8.32233 17.5
      vertex 74.7279 -10 12.3553
      vertex 77.5 -10 15.1274
    endloop
  endfacet
  facet normal -0.499998 -0.707109 0.499998
    outer loop
      vertex 74.7279 -10 12.3553
      vertex 77.5 -8.32233 17.5
      vertex 70.6777 -8.32233 10.6777
    endloop
  endfacet
  facet normal 0.499999 -0.70711 -0.499997
    outer loop
      vertex 70 -10 -2.62742
      vertex 77.5 -8.32233 2.5
      vertex 75.1274 -10 2.5
    endloop
  endfacet
  facet normal 0.5 -0.707106 -0.5
    outer loop
      vertex 77.5 -8.32233 2.5
      vertex 70 -10 -2.62742
      vertex 70 -8.32233 -5
    endloop
  endfacet
  facet normal 0.499995 -0.70711 -0.500002
    outer loop
      vertex 77.5 -8.32233 2.5
      vertex 79.6777 -8.32233 4.67767
      vertex 77.5 -9.22435 3.77565
    endloop
  endfacet
  facet normal 0.499998 -0.707109 -0.499998
    outer loop
      vertex 92.5 -10 19.8726
      vertex 95 -8.32233 20
      vertex 92.6274 -10 20
    endloop
  endfacet
  facet normal 0.499998 -0.707109 -0.499998
    outer loop
      vertex 95 -8.32233 20
      vertex 92.5 -10 19.8726
      vertex 92.5 -8.32233 17.5
    endloop
  endfacet
  facet normal 0.499998 -0.707109 -0.499998
    outer loop
      vertex 85.6777 -8.32233 10.6777
      vertex 90.1274 -10 17.5
      vertex 85 -10 12.3726
    endloop
  endfacet
  facet normal 0.500465 -0.706993 -0.499696
    outer loop
      vertex 85.6777 -8.32233 10.6777
      vertex 85 -10 12.3726
      vertex 85 -9.95837 12.3137
    endloop
  endfacet
  facet normal 0.499998 -0.707109 -0.499998
    outer loop
      vertex 90.1274 -10 17.5
      vertex 85.6777 -8.32233 10.6777
      vertex 92.5 -8.32233 17.5
    endloop
  endfacet
  facet normal -0.5 -0.707107 0.5
    outer loop
      vertex 70 -8.32233 -5
      vertex 77.5 -10 0.127416
      vertex 77.5 -8.32233 2.5
    endloop
  endfacet
  facet normal -0.499999 -0.70711 0.499997
    outer loop
      vertex 77.5 -10 0.127416
      vertex 70 -8.32233 -5
      vertex 72.3726 -10 -5
    endloop
  endfacet
  facet normal -0.499997 -0.707107 0.500003
    outer loop
      vertex 79.8726 -10 2.5
      vertex 79.6777 -8.32233 4.67767
      vertex 77.5 -8.32233 2.5
    endloop
  endfacet
  facet normal -0.500001 -0.707105 0.500001
    outer loop
      vertex 79.6777 -8.32233 4.67767
      vertex 79.8726 -10 2.5
      vertex 80.3726 -10 3
    endloop
  endfacet
  facet normal -0.499998 -0.707109 0.499998
    outer loop
      vertex 94.8726 -10 17.5
      vertex 95 -8.32233 20
      vertex 92.5 -8.32233 17.5
    endloop
  endfacet
  facet normal -0.499998 -0.707109 0.499998
    outer loop
      vertex 95 -8.32233 20
      vertex 94.8726 -10 17.5
      vertex 97.3726 -10 20
    endloop
  endfacet
  facet normal -0.499998 -0.707109 0.499998
    outer loop
      vertex 92.5 -8.32233 17.5
      vertex 89.7279 -10 12.3553
      vertex 92.5 -10 15.1274
    endloop
  endfacet
  facet normal -0.499998 -0.707109 0.499998
    outer loop
      vertex 89.7279 -10 12.3553
      vertex 92.5 -8.32233 17.5
      vertex 85.6777 -8.32233 10.6777
    endloop
  endfacet
  facet normal 0.499999 -0.70711 -0.499997
    outer loop
      vertex 85 -10 -2.62742
      vertex 92.5 -8.32233 2.5
      vertex 90.1274 -10 2.5
    endloop
  endfacet
  facet normal 0.5 -0.707106 -0.5
    outer loop
      vertex 92.5 -8.32233 2.5
      vertex 85 -10 -2.62742
      vertex 85 -8.32233 -5
    endloop
  endfacet
  facet normal 0.499995 -0.70711 -0.500002
    outer loop
      vertex 92.5 -8.32233 2.5
      vertex 94.6777 -8.32233 4.67767
      vertex 92.5 -9.22435 3.77565
    endloop
  endfacet
  facet normal 0.499983 -0.70715 -0.499956
    outer loop
      vertex 100.678 -8.32233 10.6777
      vertex 107.627 -10 20
      vertex 100 -10 12.3726
    endloop
  endfacet
  facet normal 0.500299 -0.707071 -0.499751
    outer loop
      vertex 100.678 -8.32233 10.6777
      vertex 100 -10 12.3726
      vertex 100 -9.95837 12.3137
    endloop
  endfacet
  facet normal 0.49996 -0.707175 -0.499944
    outer loop
      vertex 107.627 -10 20
      vertex 100.678 -8.32233 10.6777
      vertex 110 -8.32233 20
    endloop
  endfacet
  facet normal -0.5 -0.707107 0.5
    outer loop
      vertex 85 -8.32233 -5
      vertex 92.5 -10 0.127416
      vertex 92.5 -8.32233 2.5
    endloop
  endfacet
  facet normal -0.499999 -0.70711 0.499997
    outer loop
      vertex 92.5 -10 0.127416
      vertex 85 -8.32233 -5
      vertex 87.3726 -10 -5
    endloop
  endfacet
  facet normal -0.499997 -0.707107 0.500003
    outer loop
      vertex 94.8726 -10 2.5
      vertex 94.6777 -8.32233 4.67767
      vertex 92.5 -8.32233 2.5
    endloop
  endfacet
  facet normal -0.500001 -0.707105 0.500001
    outer loop
      vertex 94.6777 -8.32233 4.67767
      vertex 94.8726 -10 2.5
      vertex 95.3726 -10 3
    endloop
  endfacet
  facet normal -0.500005 -0.707106 0.499996
    outer loop
      vertex 110 -8.32233 20
      vertex 104.728 -10 12.3553
      vertex 110 -10 17.6274
    endloop
  endfacet
  facet normal -0.500018 -0.707093 0.500002
    outer loop
      vertex 104.728 -10 12.3553
      vertex 110 -8.32233 20
      vertex 100.678 -8.32233 10.6777
    endloop
  endfacet
  facet normal 1 -0 0
    outer loop
      vertex 110 -10 3
      vertex 110 -8.32233 0
      vertex 110 -5.32233 7.67767
    endloop
  endfacet
  facet normal 1 0 0
    outer loop
      vertex 110 -8.32233 0
      vertex 110 -10 3
      vertex 110 -10 2.37258
    endloop
  endfacet
  facet normal 1 0 0
    outer loop
      vertex 110 20 20
      vertex 110 -5.32233 7.67767
      vertex 110 20 -5
    endloop
  endfacet
  facet normal 1 -0 0
    outer loop
      vertex 110 -8.32233 20
      vertex 110 -5.32233 7.67767
      vertex 110 20 20
    endloop
  endfacet
  facet normal 1 0 0
    outer loop
      vertex 110 -10 12.3553
      vertex 110 -8.32233 20
      vertex 110 -10 17.6274
    endloop
  endfacet
  facet normal 1 0 0
    outer loop
      vertex 110 -8.32233 20
      vertex 110 -10 12.3553
      vertex 110 -5.32233 7.67767
    endloop
  endfacet
  facet normal 1 -0 0
    outer loop
      vertex 110 -8.32233 0
      vertex 110 20 -5
      vertex 110 -5.32233 7.67767
    endloop
  endfacet
  facet normal 1 0 0
    outer loop
      vertex 110 -10 -5
      vertex 110 -8.32233 0
      vertex 110 -10 -2.37258
    endloop
  endfacet
  facet normal 1 0 0
    outer loop
      vertex 110 -8.32233 0
      vertex 110 -10 -5
      vertex 110 20 -5
    endloop
  endfacet
  facet normal -0 0 1
    outer loop
      vertex -5 20 20
      vertex 0 0 20
      vertex 0 20 20
    endloop
  endfacet
  facet normal 0 0 1
    outer loop
      vertex -5 -10 20
      vertex 0 0 20
      vertex -5 20 20
    endloop
  endfacet
  facet normal 0 0 1
    outer loop
      vertex 0 0 20
      vertex -5 -10 20
      vertex 0 -8.32233 20
    endloop
  endfacet
  facet normal 0 0 1
    outer loop
      vertex 0 -8.32233 20
      vertex -5 -10 20
      vertex -2.37258 -10 20
    endloop
  endfacet
  facet normal -0 0 1
    outer loop
      vertex 105 0 20
      vertex 110 -8.32233 20
      vertex 110 20 20
    endloop
  endfacet
  facet normal 0 0 1
    outer loop
      vertex 105 0 20
      vertex 110 20 20
      vertex 105 20 20
    endloop
  endfacet
  facet normal 0 0 1
    outer loop
      vertex 110 -8.32233 20
      vertex 105 0 20
      vertex 107.627 -10 20
    endloop
  endfacet
  facet normal 0 0 1
    outer loop
      vertex 105 0 20
      vertex 97.3726 -10 20
      vertex 107.627 -10 20
    endloop
  endfacet
  facet normal 0 0 1
    outer loop
      vertex 105 0 20
      vertex 95 -8.32233 20
      vertex 97.3726 -10 20
    endloop
  endfacet
  facet normal 0 0 1
    outer loop
      vertex 90 -8.32233 20
      vertex 95 -8.32233 20
      vertex 105 0 20
    endloop
  endfacet
  facet normal 0 0 1
    outer loop
      vertex 95 -8.32233 20
      vertex 90 -8.32233 20
      vertex 92.6274 -10 20
    endloop
  endfacet
  facet normal 0 0 1
    outer loop
      vertex 92.6274 -10 20
      vertex 90 -8.32233 20
      vertex 92.3726 -10 20
    endloop
  endfacet
  facet normal 0 0 1
    outer loop
      vertex 90 -8.32233 20
      vertex 82.3726 -10 20
      vertex 87.6274 -10 20
    endloop
  endfacet
  facet normal 0 0 1
    outer loop
      vertex 80 -8.32233 20
      vertex 90 -8.32233 20
      vertex 105 0 20
    endloop
  endfacet
  facet normal 0 0 1
    outer loop
      vertex 90 -8.32233 20
      vertex 80 -8.32233 20
      vertex 82.3726 -10 20
    endloop
  endfacet
  facet normal 0 0 1
    outer loop
      vertex 80 -8.32233 20
      vertex 77.3726 -10 20
      vertex 77.6274 -10 20
    endloop
  endfacet
  facet normal 0 0 1
    outer loop
      vertex 80 -8.32233 20
      vertex 75 -8.32233 20
      vertex 77.3726 -10 20
    endloop
  endfacet
  facet normal 0 0 1
    outer loop
      vertex 105 0 20
      vertex 75 -8.32233 20
      vertex 80 -8.32233 20
    endloop
  endfacet
  facet normal 0 0 1
    outer loop
      vertex 75 -8.32233 20
      vertex 67.3726 -10 20
      vertex 72.6274 -10 20
    endloop
  endfacet
  facet normal 0 0 1
    outer loop
      vertex 65 -8.32233 20
      vertex 75 -8.32233 20
      vertex 105 0 20
    endloop
  endfacet
  facet normal 0 0 1
    outer loop
      vertex 75 -8.32233 20
      vertex 65 -8.32233 20
      vertex 67.3726 -10 20
    endloop
  endfacet
  facet normal 0 0 1
    outer loop
      vertex 65 -8.32233 20
      vertex 62.3726 -10 20
      vertex 62.6274 -10 20
    endloop
  endfacet
  facet normal 0 0 1
    outer loop
      vertex 65 -8.32233 20
      vertex 60 -8.32233 20
      vertex 62.3726 -10 20
    endloop
  endfacet
  facet normal 0 0 1
    outer loop
      vertex 105 0 20
      vertex 60 -8.32233 20
      vertex 65 -8.32233 20
    endloop
  endfacet
  facet normal 0 0 1
    outer loop
      vertex 60 -8.32233 20
      vertex 52.3726 -10 20
      vertex 57.6274 -10 20
    endloop
  endfacet
  facet normal 0 0 1
    outer loop
      vertex 60 -8.32233 20
      vertex 50 -8.32233 20
      vertex 52.3726 -10 20
    endloop
  endfacet
  facet normal 0 0 1
    outer loop
      vertex 105 0 20
      vertex 50 -8.32233 20
      vertex 60 -8.32233 20
    endloop
  endfacet
  facet normal 0 0 1
    outer loop
      vertex 50 -8.32233 20
      vertex 47.3726 -10 20
      vertex 47.6274 -10 20
    endloop
  endfacet
  facet normal 0 0 1
    outer loop
      vertex 50 -8.32233 20
      vertex 45 -8.32233 20
      vertex 47.3726 -10 20
    endloop
  endfacet
  facet normal -0 0 1
    outer loop
      vertex 0 0 20
      vertex 50 -8.32233 20
      vertex 105 0 20
    endloop
  endfacet
  facet normal 0 0 1
    outer loop
      vertex 45 -8.32233 20
      vertex 37.3726 -10 20
      vertex 42.6274 -10 20
    endloop
  endfacet
  facet normal 0 0 1
    outer loop
      vertex 45 -8.32233 20
      vertex 35 -8.32233 20
      vertex 37.3726 -10 20
    endloop
  endfacet
  facet normal 0 0 1
    outer loop
      vertex 50 -8.32233 20
      vertex 0 0 20
      vertex 45 -8.32233 20
    endloop
  endfacet
  facet normal 0 0 1
    outer loop
      vertex 35 -8.32233 20
      vertex 32.3726 -10 20
      vertex 32.6274 -10 20
    endloop
  endfacet
  facet normal 0 0 1
    outer loop
      vertex 35 -8.32233 20
      vertex 30 -8.32233 20
      vertex 32.3726 -10 20
    endloop
  endfacet
  facet normal 0 0 1
    outer loop
      vertex 45 -8.32233 20
      vertex 0 0 20
      vertex 35 -8.32233 20
    endloop
  endfacet
  facet normal 0 0 1
    outer loop
      vertex 30 -8.32233 20
      vertex 22.3726 -10 20
      vertex 27.6274 -10 20
    endloop
  endfacet
  facet normal 0 0 1
    outer loop
      vertex 30 -8.32233 20
      vertex 20 -8.32233 20
      vertex 22.3726 -10 20
    endloop
  endfacet
  facet normal 0 0 1
    outer loop
      vertex 35 -8.32233 20
      vertex 0 0 20
      vertex 30 -8.32233 20
    endloop
  endfacet
  facet normal 0 0 1
    outer loop
      vertex 20 -8.32233 20
      vertex 17.3726 -10 20
      vertex 17.6274 -10 20
    endloop
  endfacet
  facet normal 0 0 1
    outer loop
      vertex 20 -8.32233 20
      vertex 15 -8.32233 20
      vertex 17.3726 -10 20
    endloop
  endfacet
  facet normal 0 0 1
    outer loop
      vertex 30 -8.32233 20
      vertex 0 0 20
      vertex 20 -8.32233 20
    endloop
  endfacet
  facet normal 0 0 1
    outer loop
      vertex 15 -8.32233 20
      vertex 7.37258 -10 20
      vertex 12.6274 -10 20
    endloop
  endfacet
  facet normal 0 0 1
    outer loop
      vertex 15 -8.32233 20
      vertex 5 -8.32233 20
      vertex 7.37258 -10 20
    endloop
  endfacet
  facet normal 0 0 1
    outer loop
      vertex 20 -8.32233 20
      vertex 0 0 20
      vertex 15 -8.32233 20
    endloop
  endfacet
  facet normal 0 0 1
    outer loop
      vertex 5 -8.32233 20
      vertex 2.37258 -10 20
      vertex 2.62742 -10 20
    endloop
  endfacet
  facet normal 0 0 1
    outer loop
      vertex 15 -8.32233 20
      vertex 0 0 20
      vertex 5 -8.32233 20
    endloop
  endfacet
  facet normal 0 0 1
    outer loop
      vertex 0 -8.32233 20
      vertex 5 -8.32233 20
      vertex 0 0 20
    endloop
  endfacet
  facet normal 0 0 1
    outer loop
      vertex 5 -8.32233 20
      vertex 0 -8.32233 20
      vertex 2.37258 -10 20
    endloop
  endfacet
  facet normal 0 0 -1
    outer loop
      vertex 100 -8.32233 -5
      vertex 110 -10 -5
      vertex 102.373 -10 -5
    endloop
  endfacet
  facet normal 0 0 -1
    outer loop
      vertex 110 -10 -5
      vertex 100 -8.32233 -5
      vertex 110 20 -5
    endloop
  endfacet
  facet normal 0 0 -1
    outer loop
      vertex 85 -8.32233 -5
      vertex 100 -8.32233 -5
      vertex 97.6274 -10 -5
    endloop
  endfacet
  facet normal 0 0 -1
    outer loop
      vertex 85 -8.32233 -5
      vertex 97.6274 -10 -5
      vertex 87.3726 -10 -5
    endloop
  endfacet
  facet normal 0 0 -1
    outer loop
      vertex 100 -8.32233 -5
      vertex 85 -8.32233 -5
      vertex 110 20 -5
    endloop
  endfacet
  facet normal 0 0 -1
    outer loop
      vertex 70 -8.32233 -5
      vertex 85 -8.32233 -5
      vertex 82.6274 -10 -5
    endloop
  endfacet
  facet normal 0 0 -1
    outer loop
      vertex 70 -8.32233 -5
      vertex 82.6274 -10 -5
      vertex 72.3726 -10 -5
    endloop
  endfacet
  facet normal 0 0 -1
    outer loop
      vertex 85 -8.32233 -5
      vertex 70 -8.32233 -5
      vertex 110 20 -5
    endloop
  endfacet
  facet normal 0 0 -1
    outer loop
      vertex 55 -8.32233 -5
      vertex 70 -8.32233 -5
      vertex 67.6274 -10 -5
    endloop
  endfacet
  facet normal 0 0 -1
    outer loop
      vertex 55 -8.32233 -5
      vertex 67.6274 -10 -5
      vertex 57.3726 -10 -5
    endloop
  endfacet
  facet normal 0 0 -1
    outer loop
      vertex 70 -8.32233 -5
      vertex 55 -8.32233 -5
      vertex 110 20 -5
    endloop
  endfacet
  facet normal 0 0 -1
    outer loop
      vertex 42.3726 -10 -5
      vertex 55 -8.32233 -5
      vertex 52.6274 -10 -5
    endloop
  endfacet
  facet normal 0 0 -1
    outer loop
      vertex 40 -8.32233 -5
      vertex 55 -8.32233 -5
      vertex 42.3726 -10 -5
    endloop
  endfacet
  facet normal 0 0 -1
    outer loop
      vertex -5 20 -5
      vertex 55 -8.32233 -5
      vertex 40 -8.32233 -5
    endloop
  endfacet
  facet normal 0 0 -1
    outer loop
      vertex 27.3726 -10 -5
      vertex 40 -8.32233 -5
      vertex 37.6274 -10 -5
    endloop
  endfacet
  facet normal 0 0 -1
    outer loop
      vertex 25 -8.32233 -5
      vertex 40 -8.32233 -5
      vertex 27.3726 -10 -5
    endloop
  endfacet
  facet normal 0 0 -1
    outer loop
      vertex -5 20 -5
      vertex 40 -8.32233 -5
      vertex 25 -8.32233 -5
    endloop
  endfacet
  facet normal 0 0 -1
    outer loop
      vertex 12.3726 -10 -5
      vertex 25 -8.32233 -5
      vertex 22.6274 -10 -5
    endloop
  endfacet
  facet normal 0 0 -1
    outer loop
      vertex 10 -8.32233 -5
      vertex 25 -8.32233 -5
      vertex 12.3726 -10 -5
    endloop
  endfacet
  facet normal 0 0 -1
    outer loop
      vertex 25 -8.32233 -5
      vertex 10 -8.32233 -5
      vertex -5 20 -5
    endloop
  endfacet
  facet normal 0 0 -1
    outer loop
      vertex -2.62742 -10 -5
      vertex 10 -8.32233 -5
      vertex 7.62742 -10 -5
    endloop
  endfacet
  facet normal 0 0 -1
    outer loop
      vertex -5 -8.32233 -5
      vertex 10 -8.32233 -5
      vertex -2.62742 -10 -5
    endloop
  endfacet
  facet normal 0 0 -1
    outer loop
      vertex 10 -8.32233 -5
      vertex -5 -8.32233 -5
      vertex -5 20 -5
    endloop
  endfacet
  facet normal 0 0 -1
    outer loop
      vertex 55 -8.32233 -5
      vertex -5 20 -5
      vertex 110 20 -5
    endloop
  endfacet
  facet normal -1 0 0
    outer loop
      vertex -5 20 -5
      vertex -5 -5.32233 7.67767
      vertex -5 20 20
    endloop
  endfacet
  facet normal -1 0 0
    outer loop
      vertex -5 -8.32233 -5
      vertex -5 -5.32233 7.67767
      vertex -5 20 -5
    endloop
  endfacet
  facet normal -1 0 0
    outer loop
      vertex -5 -10 3
      vertex -5 -8.32233 -5
      vertex -5 -10 -2.62742
    endloop
  endfacet
  facet normal -1 0 0
    outer loop
      vertex -5 -8.32233 -5
      vertex -5 -10 3
      vertex -5 -5.32233 7.67767
    endloop
  endfacet
  facet normal -1 0 0
    outer loop
      vertex -5 -10 20
      vertex -5 -5.32233 7.67767
      vertex -5 -9.95837 12.3137
    endloop
  endfacet
  facet normal -1 0 0
    outer loop
      vertex -5 -10 20
      vertex -5 -9.95837 12.3137
      vertex -5 -10 12.3726
    endloop
  endfacet
  facet normal -1 0 0
    outer loop
      vertex -5 -5.32233 7.67767
      vertex -5 -10 20
      vertex -5 20 20
    endloop
  endfacet
  facet normal 0 1 0
    outer loop
      vertex 110 20 20
      vertex 105 20 0
      vertex 105 20 20
    endloop
  endfacet
  facet normal 0 1 0
    outer loop
      vertex 105 20 0
      vertex 110 20 -5
      vertex 0 20 0
    endloop
  endfacet
  facet normal 0 1 -0
    outer loop
      vertex 110 20 -5
      vertex 105 20 0
      vertex 110 20 20
    endloop
  endfacet
  facet normal 0 1 -0
    outer loop
      vertex 0 20 0
      vertex -5 20 20
      vertex 0 20 20
    endloop
  endfacet
  facet normal 0 1 0
    outer loop
      vertex 0 20 0
      vertex -5 20 -5
      vertex -5 20 20
    endloop
  endfacet
  facet normal 0 1 0
    outer loop
      vertex -5 20 -5
      vertex 0 20 0
      vertex 110 20 -5
    endloop
  endfacet
  facet normal 0 -1 0
    outer loop
      vertex -5 -10 20
      vertex 0.127416 -10 17.5
      vertex -2.37258 -10 20
    endloop
  endfacet
  facet normal -0 -1 0
    outer loop
      vertex 0.127416 -10 17.5
      vertex -5 -10 20
      vertex -5 -10 12.3726
    endloop
  endfacet
  facet normal 0 -1 0
    outer loop
      vertex 102.373 -10 -5
      vertex 95.3726 -10 3
      vertex 94.8726 -10 2.5
    endloop
  endfacet
  facet normal 0 -1 0
    outer loop
      vertex 95.3726 -10 3
      vertex 102.373 -10 -5
      vertex 104.627 -10 3
    endloop
  endfacet
  facet normal 0 -1 -0
    outer loop
      vertex 104.627 -10 3
      vertex 102.373 -10 -5
      vertex 110 -10 -2.37258
    endloop
  endfacet
  facet normal 0 -1 -0
    outer loop
      vertex 110 -10 -2.37258
      vertex 102.373 -10 -5
      vertex 110 -10 -5
    endloop
  endfacet
  facet normal 0 -1 0
    outer loop
      vertex -5 -10 3
      vertex 0.127416 -10 2.5
      vertex -0.372584 -10 3
    endloop
  endfacet
  facet normal -0 -1 0
    outer loop
      vertex 0.127416 -10 2.5
      vertex -5 -10 3
      vertex -5 -10 -2.62742
    endloop
  endfacet
  facet normal -0 -1 -0
    outer loop
      vertex 110 -10 3
      vertex 109.373 -10 3
      vertex 110 -10 2.37258
    endloop
  endfacet
  facet normal 0 -1 -0
    outer loop
      vertex 110 -10 17.6274
      vertex 104.728 -10 12.3553
      vertex 110 -10 12.3553
    endloop
  endfacet
  facet normal 0 -1 -0
    outer loop
      vertex 17.5 -10 0.127416
      vertex 12.3726 -10 -5
      vertex 22.6274 -10 -5
    endloop
  endfacet
  facet normal 0 -1 0
    outer loop
      vertex 27.3726 -10 -5
      vertex 37.6274 -10 -5
      vertex 32.5 -10 0.127416
    endloop
  endfacet
  facet normal 0 -1 0
    outer loop
      vertex 42.3726 -10 -5
      vertex 52.6274 -10 -5
      vertex 47.5 -10 0.127416
    endloop
  endfacet
  facet normal 0 -1 -0
    outer loop
      vertex 62.5 -10 0.127416
      vertex 57.3726 -10 -5
      vertex 67.6274 -10 -5
    endloop
  endfacet
  facet normal 0 -1 -0
    outer loop
      vertex 77.5 -10 0.127416
      vertex 72.3726 -10 -5
      vertex 82.6274 -10 -5
    endloop
  endfacet
  facet normal 0 -1 -0
    outer loop
      vertex 92.5 -10 0.127416
      vertex 87.3726 -10 -5
      vertex 97.6274 -10 -5
    endloop
  endfacet
  facet normal 0 -1 0
    outer loop
      vertex 10 -10 -2.62742
      vertex 5.37258 -10 3
      vertex 4.87258 -10 2.5
    endloop
  endfacet
  facet normal 0 -1 0
    outer loop
      vertex 5.37258 -10 3
      vertex 10 -10 -2.62742
      vertex 14.6274 -10 3
    endloop
  endfacet
  facet normal 0 -1 -0
    outer loop
      vertex 14.6274 -10 3
      vertex 10 -10 -2.62742
      vertex 15.1274 -10 2.5
    endloop
  endfacet
  facet normal 0 -1 -0
    outer loop
      vertex 2.5 -10 15.1274
      vertex -0.272076 -10 12.3553
      vertex 5.27208 -10 12.3553
    endloop
  endfacet
  facet normal -0 -1 0
    outer loop
      vertex 2.62742 -10 20
      vertex 2.37258 -10 20
      vertex 2.5 -10 19.8726
    endloop
  endfacet
  facet normal 0 -1 0
    outer loop
      vertex 10 -10 12.3726
      vertex 7.37258 -10 20
      vertex 4.87258 -10 17.5
    endloop
  endfacet
  facet normal 0 -1 0
    outer loop
      vertex 7.37258 -10 20
      vertex 10 -10 12.3726
      vertex 12.6274 -10 20
    endloop
  endfacet
  facet normal 0 -1 -0
    outer loop
      vertex 12.6274 -10 20
      vertex 10 -10 12.3726
      vertex 15.1274 -10 17.5
    endloop
  endfacet
  facet normal 0 -1 0
    outer loop
      vertex 25 -10 -2.62742
      vertex 29.6274 -10 3
      vertex 20.3726 -10 3
    endloop
  endfacet
  facet normal 0 -1 0
    outer loop
      vertex 25 -10 -2.62742
      vertex 20.3726 -10 3
      vertex 19.8726 -10 2.5
    endloop
  endfacet
  facet normal 0 -1 -0
    outer loop
      vertex 29.6274 -10 3
      vertex 25 -10 -2.62742
      vertex 30.1274 -10 2.5
    endloop
  endfacet
  facet normal 0 -1 -0
    outer loop
      vertex 17.5 -10 15.1274
      vertex 14.7279 -10 12.3553
      vertex 20.2721 -10 12.3553
    endloop
  endfacet
  facet normal -0 -1 0
    outer loop
      vertex 17.6274 -10 20
      vertex 17.3726 -10 20
      vertex 17.5 -10 19.8726
    endloop
  endfacet
  facet normal 0 -1 0
    outer loop
      vertex 25 -10 12.3726
      vertex 22.3726 -10 20
      vertex 19.8726 -10 17.5
    endloop
  endfacet
  facet normal 0 -1 0
    outer loop
      vertex 22.3726 -10 20
      vertex 25 -10 12.3726
      vertex 27.6274 -10 20
    endloop
  endfacet
  facet normal 0 -1 -0
    outer loop
      vertex 27.6274 -10 20
      vertex 25 -10 12.3726
      vertex 30.1274 -10 17.5
    endloop
  endfacet
  facet normal 0 -1 0
    outer loop
      vertex 40 -10 -2.62742
      vertex 44.6274 -10 3
      vertex 35.3726 -10 3
    endloop
  endfacet
  facet normal 0 -1 0
    outer loop
      vertex 40 -10 -2.62742
      vertex 35.3726 -10 3
      vertex 34.8726 -10 2.5
    endloop
  endfacet
  facet normal 0 -1 -0
    outer loop
      vertex 44.6274 -10 3
      vertex 40 -10 -2.62742
      vertex 45.1274 -10 2.5
    endloop
  endfacet
  facet normal 0 -1 -0
    outer loop
      vertex 32.5 -10 15.1274
      vertex 29.7279 -10 12.3553
      vertex 35.2721 -10 12.3553
    endloop
  endfacet
  facet normal -0 -1 0
    outer loop
      vertex 32.6274 -10 20
      vertex 32.3726 -10 20
      vertex 32.5 -10 19.8726
    endloop
  endfacet
  facet normal 0 -1 0
    outer loop
      vertex 40 -10 12.3726
      vertex 37.3726 -10 20
      vertex 34.8726 -10 17.5
    endloop
  endfacet
  facet normal 0 -1 0
    outer loop
      vertex 37.3726 -10 20
      vertex 40 -10 12.3726
      vertex 42.6274 -10 20
    endloop
  endfacet
  facet normal 0 -1 -0
    outer loop
      vertex 42.6274 -10 20
      vertex 40 -10 12.3726
      vertex 45.1274 -10 17.5
    endloop
  endfacet
  facet normal -0 -1 0
    outer loop
      vertex 47.6274 -10 20
      vertex 47.3726 -10 20
      vertex 47.5 -10 19.8726
    endloop
  endfacet
  facet normal 0 -1 0
    outer loop
      vertex 55 -10 12.3726
      vertex 52.3726 -10 20
      vertex 49.8726 -10 17.5
    endloop
  endfacet
  facet normal 0 -1 0
    outer loop
      vertex 52.3726 -10 20
      vertex 55 -10 12.3726
      vertex 57.6274 -10 20
    endloop
  endfacet
  facet normal 0 -1 -0
    outer loop
      vertex 57.6274 -10 20
      vertex 55 -10 12.3726
      vertex 60.1274 -10 17.5
    endloop
  endfacet
  facet normal -0 -1 0
    outer loop
      vertex 62.6274 -10 20
      vertex 62.3726 -10 20
      vertex 62.5 -10 19.8726
    endloop
  endfacet
  facet normal 0 -1 0
    outer loop
      vertex 70 -10 12.3726
      vertex 67.3726 -10 20
      vertex 64.8726 -10 17.5
    endloop
  endfacet
  facet normal 0 -1 0
    outer loop
      vertex 67.3726 -10 20
      vertex 70 -10 12.3726
      vertex 72.6274 -10 20
    endloop
  endfacet
  facet normal 0 -1 -0
    outer loop
      vertex 72.6274 -10 20
      vertex 70 -10 12.3726
      vertex 75.1274 -10 17.5
    endloop
  endfacet
  facet normal -0 -1 0
    outer loop
      vertex 77.6274 -10 20
      vertex 77.3726 -10 20
      vertex 77.5 -10 19.8726
    endloop
  endfacet
  facet normal 0 -1 0
    outer loop
      vertex 85 -10 12.3726
      vertex 82.3726 -10 20
      vertex 79.8726 -10 17.5
    endloop
  endfacet
  facet normal 0 -1 0
    outer loop
      vertex 82.3726 -10 20
      vertex 85 -10 12.3726
      vertex 87.6274 -10 20
    endloop
  endfacet
  facet normal 0 -1 -0
    outer loop
      vertex 87.6274 -10 20
      vertex 85 -10 12.3726
      vertex 90.1274 -10 17.5
    endloop
  endfacet
  facet normal -0 -1 0
    outer loop
      vertex 92.6274 -10 20
      vertex 92.3726 -10 20
      vertex 92.5 -10 19.8726
    endloop
  endfacet
  facet normal 0 -1 0
    outer loop
      vertex 55 -10 -2.62742
      vertex 50.3726 -10 3
      vertex 49.8726 -10 2.5
    endloop
  endfacet
  facet normal 0 -1 0
    outer loop
      vertex 50.3726 -10 3
      vertex 55 -10 -2.62742
      vertex 59.6274 -10 3
    endloop
  endfacet
  facet normal 0 -1 -0
    outer loop
      vertex 59.6274 -10 3
      vertex 55 -10 -2.62742
      vertex 60.1274 -10 2.5
    endloop
  endfacet
  facet normal 0 -1 0
    outer loop
      vertex 70 -10 -2.62742
      vertex 65.3726 -10 3
      vertex 64.8726 -10 2.5
    endloop
  endfacet
  facet normal 0 -1 0
    outer loop
      vertex 65.3726 -10 3
      vertex 70 -10 -2.62742
      vertex 74.6274 -10 3
    endloop
  endfacet
  facet normal 0 -1 -0
    outer loop
      vertex 74.6274 -10 3
      vertex 70 -10 -2.62742
      vertex 75.1274 -10 2.5
    endloop
  endfacet
  facet normal 0 -1 0
    outer loop
      vertex 85 -10 -2.62742
      vertex 80.3726 -10 3
      vertex 79.8726 -10 2.5
    endloop
  endfacet
  facet normal 0 -1 0
    outer loop
      vertex 80.3726 -10 3
      vertex 85 -10 -2.62742
      vertex 89.6274 -10 3
    endloop
  endfacet
  facet normal 0 -1 -0
    outer loop
      vertex 89.6274 -10 3
      vertex 85 -10 -2.62742
      vertex 90.1274 -10 2.5
    endloop
  endfacet
  facet normal 0 -1 -0
    outer loop
      vertex 47.5 -10 15.1274
      vertex 44.7279 -10 12.3553
      vertex 50.2721 -10 12.3553
    endloop
  endfacet
  facet normal 0 -1 -0
    outer loop
      vertex 62.5 -10 15.1274
      vertex 59.7279 -10 12.3553
      vertex 65.2721 -10 12.3553
    endloop
  endfacet
  facet normal 0 -1 -0
    outer loop
      vertex 77.5 -10 15.1274
      vertex 74.7279 -10 12.3553
      vertex 80.2721 -10 12.3553
    endloop
  endfacet
  facet normal 0 -1 -0
    outer loop
      vertex 92.5 -10 15.1274
      vertex 89.7279 -10 12.3553
      vertex 95.2721 -10 12.3553
    endloop
  endfacet
  facet normal 0 -1 -0
    outer loop
      vertex 2.5 -10 0.127416
      vertex -2.62742 -10 -5
      vertex 7.62742 -10 -5
    endloop
  endfacet
  facet normal 0 -1 0
    outer loop
      vertex 100 -10 12.3726
      vertex 97.3726 -10 20
      vertex 94.8726 -10 17.5
    endloop
  endfacet
  facet normal 0 -1 0
    outer loop
      vertex 97.3726 -10 20
      vertex 100 -10 12.3726
      vertex 107.627 -10 20
    endloop
  endfacet
  facet normal -1 0 0
    outer loop
      vertex 105 0 0
      vertex 105 20 20
      vertex 105 20 0
    endloop
  endfacet
  facet normal -1 -0 0
    outer loop
      vertex 105 20 20
      vertex 105 0 0
      vertex 105 0 20
    endloop
  endfacet
  facet normal 0 0 1
    outer loop
      vertex 105 20 0
      vertex 90 10 0
      vertex 105 0 0
    endloop
  endfacet
  facet normal 0 0 1
    outer loop
      vertex 105 20 0
      vertex 89.6194 11.9134 0
      vertex 90 10 0
    endloop
  endfacet
  facet normal 0 0 1
    outer loop
      vertex 105 20 0
      vertex 88.5355 13.5355 0
      vertex 89.6194 11.9134 0
    endloop
  endfacet
  facet normal 0 0 1
    outer loop
      vertex 105 20 0
      vertex 86.9134 14.6194 0
      vertex 88.5355 13.5355 0
    endloop
  endfacet
  facet normal 0 0 1
    outer loop
      vertex 105 20 0
      vertex 85 15 0
      vertex 86.9134 14.6194 0
    endloop
  endfacet
  facet normal 0 0 1
    outer loop
      vertex 20 15 0
      vertex 85 15 0
      vertex 105 20 0
    endloop
  endfacet
  facet normal 0 0 1
    outer loop
      vertex 80.3806 11.9134 0
      vertex 25 10 0
      vertex 80 10 0
    endloop
  endfacet
  facet normal 0 0 1
    outer loop
      vertex 24.6194 11.9134 0
      vertex 80.3806 11.9134 0
      vertex 81.4645 13.5355 0
    endloop
  endfacet
  facet normal 0 0 1
    outer loop
      vertex 23.5355 13.5355 0
      vertex 81.4645 13.5355 0
      vertex 83.0866 14.6194 0
    endloop
  endfacet
  facet normal 0 0 1
    outer loop
      vertex 85 15 0
      vertex 20 15 0
      vertex 83.0866 14.6194 0
    endloop
  endfacet
  facet normal 0 0 1
    outer loop
      vertex 80.3806 11.9134 0
      vertex 24.6194 11.9134 0
      vertex 25 10 0
    endloop
  endfacet
  facet normal 0 0 1
    outer loop
      vertex 81.4645 13.5355 0
      vertex 23.5355 13.5355 0
      vertex 24.6194 11.9134 0
    endloop
  endfacet
  facet normal 0 0 1
    outer loop
      vertex 83.0866 14.6194 0
      vertex 21.9134 14.6194 0
      vertex 23.5355 13.5355 0
    endloop
  endfacet
  facet normal 0 0 1
    outer loop
      vertex 83.0866 14.6194 0
      vertex 20 15 0
      vertex 21.9134 14.6194 0
    endloop
  endfacet
  facet normal 0 0 1
    outer loop
      vertex 15.3806 11.9134 0
      vertex 0 20 0
      vertex 15 10 0
    endloop
  endfacet
  facet normal 0 0 1
    outer loop
      vertex 16.4645 13.5355 0
      vertex 0 20 0
      vertex 15.3806 11.9134 0
    endloop
  endfacet
  facet normal 0 0 1
    outer loop
      vertex 18.0866 14.6194 0
      vertex 0 20 0
      vertex 16.4645 13.5355 0
    endloop
  endfacet
  facet normal 0 0 1
    outer loop
      vertex 20 15 0
      vertex 0 20 0
      vertex 18.0866 14.6194 0
    endloop
  endfacet
  facet normal -0 0 1
    outer loop
      vertex 0 20 0
      vertex 20 15 0
      vertex 105 20 0
    endloop
  endfacet
  facet normal -0 0 1
    outer loop
      vertex 89.6194 8.08658 0
      vertex 105 0 0
      vertex 90 10 0
    endloop
  endfacet
  facet normal -0 0 1
    outer loop
      vertex 88.5355 6.46447 0
      vertex 105 0 0
      vertex 89.6194 8.08658 0
    endloop
  endfacet
  facet normal -0 0 1
    outer loop
      vertex 86.9134 5.3806 0
      vertex 105 0 0
      vertex 88.5355 6.46447 0
    endloop
  endfacet
  facet normal -0 0 1
    outer loop
      vertex 85 5 0
      vertex 105 0 0
      vertex 86.9134 5.3806 0
    endloop
  endfacet
  facet normal 0 0 1
    outer loop
      vertex 20 5 0
      vertex 85 5 0
      vertex 83.0866 5.3806 0
    endloop
  endfacet
  facet normal -0 0 1
    outer loop
      vertex 25 10 0
      vertex 80.3806 8.08658 0
      vertex 80 10 0
    endloop
  endfacet
  facet normal 0 0 1
    outer loop
      vertex 24.6194 8.08658 0
      vertex 80.3806 8.08658 0
      vertex 25 10 0
    endloop
  endfacet
  facet normal 0 0 1
    outer loop
      vertex 80.3806 8.08658 0
      vertex 24.6194 8.08658 0
      vertex 81.4645 6.46447 0
    endloop
  endfacet
  facet normal 0 0 1
    outer loop
      vertex 23.5355 6.46447 0
      vertex 81.4645 6.46447 0
      vertex 24.6194 8.08658 0
    endloop
  endfacet
  facet normal 0 0 1
    outer loop
      vertex 81.4645 6.46447 0
      vertex 23.5355 6.46447 0
      vertex 83.0866 5.3806 0
    endloop
  endfacet
  facet normal 0 0 1
    outer loop
      vertex 21.9134 5.3806 0
      vertex 83.0866 5.3806 0
      vertex 23.5355 6.46447 0
    endloop
  endfacet
  facet normal 0 0 1
    outer loop
      vertex 20 5 0
      vertex 83.0866 5.3806 0
      vertex 21.9134 5.3806 0
    endloop
  endfacet
  facet normal 0 0 1
    outer loop
      vertex 85 5 0
      vertex 20 5 0
      vertex 105 0 0
    endloop
  endfacet
  facet normal 0 0 1
    outer loop
      vertex 0 0 0
      vertex 15 10 0
      vertex 0 20 0
    endloop
  endfacet
  facet normal 0 0 1
    outer loop
      vertex 15 10 0
      vertex 0 0 0
      vertex 15.3806 8.08658 0
    endloop
  endfacet
  facet normal 0 0 1
    outer loop
      vertex 20 5 0
      vertex 0 0 0
      vertex 105 0 0
    endloop
  endfacet
  facet normal 0 0 1
    outer loop
      vertex 18.0866 5.3806 0
      vertex 0 0 0
      vertex 20 5 0
    endloop
  endfacet
  facet normal 0 0 1
    outer loop
      vertex 16.4645 6.46447 0
      vertex 0 0 0
      vertex 18.0866 5.3806 0
    endloop
  endfacet
  facet normal 0 0 1
    outer loop
      vertex 15.3806 8.08658 0
      vertex 0 0 0
      vertex 16.4645 6.46447 0
    endloop
  endfacet
  facet normal 1 -0 0
    outer loop
      vertex 0 0 20
      vertex 0 20 0
      vertex 0 20 20
    endloop
  endfacet
  facet normal 1 0 0
    outer loop
      vertex 0 20 0
      vertex 0 0 20
      vertex 0 0 0
    endloop
  endfacet
  facet normal 0 1 -0
    outer loop
      vertex 105 0 0
      vertex 0 0 20
      vertex 105 0 20
    endloop
  endfacet
  facet normal 0 1 0
    outer loop
      vertex 0 0 20
      vertex 105 0 0
      vertex 0 0 0
    endloop
  endfacet
  facet normal 0 -0.707107 0.707107
    outer loop
      vertex 95.3726 -10 3
      vertex 105.322 -8.32233 4.67767
      vertex 94.6777 -8.32233 4.67767
    endloop
  endfacet
  facet normal 0 -0.707107 0.707107
    outer loop
      vertex 105.322 -8.32233 4.67767
      vertex 95.3726 -10 3
      vertex 104.627 -10 3
    endloop
  endfacet
  facet normal 0 -0.707107 0.707107
    outer loop
      vertex 90.3223 -8.32233 4.67767
      vertex 92.5 -9.22435 3.77565
      vertex 94.6777 -8.32233 4.67767
    endloop
  endfacet
  facet normal 0 -0.707107 0.707107
    outer loop
      vertex 80.3726 -10 3
      vertex 90.3223 -8.32233 4.67767
      vertex 79.6777 -8.32233 4.67767
    endloop
  endfacet
  facet normal 0 -0.707107 0.707107
    outer loop
      vertex 90.3223 -8.32233 4.67767
      vertex 80.3726 -10 3
      vertex 89.6274 -10 3
    endloop
  endfacet
  facet normal 0 -0.707107 0.707107
    outer loop
      vertex 75.3223 -8.32233 4.67767
      vertex 77.5 -9.22435 3.77565
      vertex 79.6777 -8.32233 4.67767
    endloop
  endfacet
  facet normal 0 -0.707107 0.707107
    outer loop
      vertex 65.3726 -10 3
      vertex 75.3223 -8.32233 4.67767
      vertex 64.6777 -8.32233 4.67767
    endloop
  endfacet
  facet normal 0 -0.707107 0.707107
    outer loop
      vertex 75.3223 -8.32233 4.67767
      vertex 65.3726 -10 3
      vertex 74.6274 -10 3
    endloop
  endfacet
  facet normal 0 -0.707107 0.707107
    outer loop
      vertex 60.3223 -8.32233 4.67767
      vertex 62.5 -9.22435 3.77565
      vertex 64.6777 -8.32233 4.67767
    endloop
  endfacet
  facet normal 0 -0.707107 0.707107
    outer loop
      vertex 50.3726 -10 3
      vertex 60.3223 -8.32233 4.67767
      vertex 49.6777 -8.32233 4.67767
    endloop
  endfacet
  facet normal 0 -0.707107 0.707107
    outer loop
      vertex 60.3223 -8.32233 4.67767
      vertex 50.3726 -10 3
      vertex 59.6274 -10 3
    endloop
  endfacet
  facet normal 0 -0.707107 0.707107
    outer loop
      vertex 45.3223 -8.32233 4.67767
      vertex 47.5 -9.22435 3.77565
      vertex 49.6777 -8.32233 4.67767
    endloop
  endfacet
  facet normal 0 -0.707107 0.707107
    outer loop
      vertex 35.3726 -10 3
      vertex 45.3223 -8.32233 4.67767
      vertex 34.6777 -8.32233 4.67767
    endloop
  endfacet
  facet normal 0 -0.707107 0.707107
    outer loop
      vertex 45.3223 -8.32233 4.67767
      vertex 35.3726 -10 3
      vertex 44.6274 -10 3
    endloop
  endfacet
  facet normal 0 -0.707107 0.707107
    outer loop
      vertex 30.3223 -8.32233 4.67767
      vertex 32.5 -9.22435 3.77565
      vertex 34.6777 -8.32233 4.67767
    endloop
  endfacet
  facet normal 0 -0.707107 0.707107
    outer loop
      vertex 20.3726 -10 3
      vertex 30.3223 -8.32233 4.67767
      vertex 19.6777 -8.32233 4.67767
    endloop
  endfacet
  facet normal 0 -0.707107 0.707107
    outer loop
      vertex 30.3223 -8.32233 4.67767
      vertex 20.3726 -10 3
      vertex 29.6274 -10 3
    endloop
  endfacet
  facet normal 0 -0.707107 0.707107
    outer loop
      vertex 15.3223 -8.32233 4.67767
      vertex 17.5 -9.22435 3.77565
      vertex 19.6777 -8.32233 4.67767
    endloop
  endfacet
  facet normal 0 -0.707107 0.707107
    outer loop
      vertex 5.37258 -10 3
      vertex 15.3223 -8.32233 4.67767
      vertex 4.67767 -8.32233 4.67767
    endloop
  endfacet
  facet normal 0 -0.707107 0.707107
    outer loop
      vertex 15.3223 -8.32233 4.67767
      vertex 5.37258 -10 3
      vertex 14.6274 -10 3
    endloop
  endfacet
  facet normal 0 -0.707107 0.707107
    outer loop
      vertex 0.32233 -8.32233 4.67767
      vertex 2.5 -9.22435 3.77565
      vertex 4.67767 -8.32233 4.67767
    endloop
  endfacet
  facet normal 0 -0.707107 0.707107
    outer loop
      vertex 4.67767 -8.32233 4.67767
      vertex -5 -5.32233 7.67767
      vertex 0.32233 -8.32233 4.67767
    endloop
  endfacet
  facet normal 1.00905e-16 -0.707107 0.707107
    outer loop
      vertex -5 -10 3
      vertex 0.32233 -8.32233 4.67767
      vertex -5 -5.32233 7.67767
    endloop
  endfacet
  facet normal 0 -0.707107 0.707107
    outer loop
      vertex 0.32233 -8.32233 4.67767
      vertex -5 -10 3
      vertex -0.372584 -10 3
    endloop
  endfacet
  facet normal 0 -0.707107 0.707107
    outer loop
      vertex 15.3223 -8.32233 4.67767
      vertex -5 -5.32233 7.67767
      vertex 4.67767 -8.32233 4.67767
    endloop
  endfacet
  facet normal 0 -0.707107 0.707107
    outer loop
      vertex 19.6777 -8.32233 4.67767
      vertex -5 -5.32233 7.67767
      vertex 15.3223 -8.32233 4.67767
    endloop
  endfacet
  facet normal 0 -0.707107 0.707107
    outer loop
      vertex 30.3223 -8.32233 4.67767
      vertex -5 -5.32233 7.67767
      vertex 19.6777 -8.32233 4.67767
    endloop
  endfacet
  facet normal 0 -0.707107 0.707107
    outer loop
      vertex 34.6777 -8.32233 4.67767
      vertex -5 -5.32233 7.67767
      vertex 30.3223 -8.32233 4.67767
    endloop
  endfacet
  facet normal 0 -0.707107 0.707107
    outer loop
      vertex 45.3223 -8.32233 4.67767
      vertex -5 -5.32233 7.67767
      vertex 34.6777 -8.32233 4.67767
    endloop
  endfacet
  facet normal 0 -0.707107 0.707107
    outer loop
      vertex -5 -5.32233 7.67767
      vertex 45.3223 -8.32233 4.67767
      vertex 110 -5.32233 7.67767
    endloop
  endfacet
  facet normal 0 -0.707107 0.707107
    outer loop
      vertex 49.6777 -8.32233 4.67767
      vertex 110 -5.32233 7.67767
      vertex 45.3223 -8.32233 4.67767
    endloop
  endfacet
  facet normal 0 -0.707107 0.707107
    outer loop
      vertex 60.3223 -8.32233 4.67767
      vertex 110 -5.32233 7.67767
      vertex 49.6777 -8.32233 4.67767
    endloop
  endfacet
  facet normal 0 -0.707107 0.707107
    outer loop
      vertex 64.6777 -8.32233 4.67767
      vertex 110 -5.32233 7.67767
      vertex 60.3223 -8.32233 4.67767
    endloop
  endfacet
  facet normal 0 -0.707107 0.707107
    outer loop
      vertex 75.3223 -8.32233 4.67767
      vertex 110 -5.32233 7.67767
      vertex 64.6777 -8.32233 4.67767
    endloop
  endfacet
  facet normal 0 -0.707107 0.707107
    outer loop
      vertex 79.6777 -8.32233 4.67767
      vertex 110 -5.32233 7.67767
      vertex 75.3223 -8.32233 4.67767
    endloop
  endfacet
  facet normal 0 -0.707107 0.707107
    outer loop
      vertex 90.3223 -8.32233 4.67767
      vertex 110 -5.32233 7.67767
      vertex 79.6777 -8.32233 4.67767
    endloop
  endfacet
  facet normal 0 -0.707107 0.707107
    outer loop
      vertex 94.6777 -8.32233 4.67767
      vertex 110 -5.32233 7.67767
      vertex 90.3223 -8.32233 4.67767
    endloop
  endfacet
  facet normal 0 -0.707107 0.707107
    outer loop
      vertex 105.322 -8.32233 4.67767
      vertex 110 -5.32233 7.67767
      vertex 94.6777 -8.32233 4.67767
    endloop
  endfacet
  facet normal -1.256e-16 -0.707107 0.707107
    outer loop
      vertex 109.373 -10 3
      vertex 110 -5.32233 7.67767
      vertex 105.322 -8.32233 4.67767
    endloop
  endfacet
  facet normal 0 -0.707107 0.707107
    outer loop
      vertex 110 -5.32233 7.67767
      vertex 109.373 -10 3
      vertex 110 -10 3
    endloop
  endfacet
  facet normal 5.08814e-06 -0.707098 -0.707115
    outer loop
      vertex 5.27208 -10 12.3553
      vertex -5 -5.32233 7.67767
      vertex 9.32233 -8.32233 10.6777
    endloop
  endfacet
  facet normal 0 -0.70711 -0.707103
    outer loop
      vertex 9.32233 -8.32233 10.6777
      vertex -5 -5.32233 7.67767
      vertex 10.6777 -8.32233 10.6777
    endloop
  endfacet
  facet normal 0 -0.70711 -0.707103
    outer loop
      vertex 10.6777 -8.32233 10.6777
      vertex -5 -5.32233 7.67767
      vertex 24.3223 -8.32233 10.6777
    endloop
  endfacet
  facet normal 0 -0.70711 -0.707103
    outer loop
      vertex 24.3223 -8.32233 10.6777
      vertex -5 -5.32233 7.67767
      vertex 25.6777 -8.32233 10.6777
    endloop
  endfacet
  facet normal 0 -0.70711 -0.707103
    outer loop
      vertex 25.6777 -8.32233 10.6777
      vertex -5 -5.32233 7.67767
      vertex 39.3223 -8.32233 10.6777
    endloop
  endfacet
  facet normal 0 -0.70711 -0.707103
    outer loop
      vertex 39.3223 -8.32233 10.6777
      vertex -5 -5.32233 7.67767
      vertex 40.6777 -8.32233 10.6777
    endloop
  endfacet
  facet normal 0 -0.70711 -0.707103
    outer loop
      vertex 40.6777 -8.32233 10.6777
      vertex -5 -5.32233 7.67767
      vertex 54.3223 -8.32233 10.6777
    endloop
  endfacet
  facet normal 0 -0.70711 -0.707103
    outer loop
      vertex 54.3223 -8.32233 10.6777
      vertex -5 -5.32233 7.67767
      vertex 55.6777 -8.32233 10.6777
    endloop
  endfacet
  facet normal -0 -0.70711 -0.707103
    outer loop
      vertex 110 -5.32233 7.67767
      vertex 55.6777 -8.32233 10.6777
      vertex -5 -5.32233 7.67767
    endloop
  endfacet
  facet normal 0 -0.70711 -0.707103
    outer loop
      vertex 55.6777 -8.32233 10.6777
      vertex 110 -5.32233 7.67767
      vertex 69.3223 -8.32233 10.6777
    endloop
  endfacet
  facet normal 0 -0.70711 -0.707103
    outer loop
      vertex 69.3223 -8.32233 10.6777
      vertex 110 -5.32233 7.67767
      vertex 70.6777 -8.32233 10.6777
    endloop
  endfacet
  facet normal 0 -0.70711 -0.707103
    outer loop
      vertex 70.6777 -8.32233 10.6777
      vertex 110 -5.32233 7.67767
      vertex 84.3223 -8.32233 10.6777
    endloop
  endfacet
  facet normal 0 -0.70711 -0.707103
    outer loop
      vertex 84.3223 -8.32233 10.6777
      vertex 110 -5.32233 7.67767
      vertex 85.6777 -8.32233 10.6777
    endloop
  endfacet
  facet normal 0 -0.70711 -0.707103
    outer loop
      vertex 85.6777 -8.32233 10.6777
      vertex 110 -5.32233 7.67767
      vertex 99.3223 -8.32233 10.6777
    endloop
  endfacet
  facet normal 3.80553e-05 -0.707106 -0.707108
    outer loop
      vertex -5 -5.32233 7.67767
      vertex -4.32233 -8.32233 10.6777
      vertex -5 -9.95837 12.3137
    endloop
  endfacet
  facet normal -1.67135e-05 -0.707112 -0.707101
    outer loop
      vertex -5 -5.32233 7.67767
      vertex -0.272076 -10 12.3553
      vertex -4.32233 -8.32233 10.6777
    endloop
  endfacet
  facet normal 0 -0.707104 -0.70711
    outer loop
      vertex -0.272076 -10 12.3553
      vertex -5 -5.32233 7.67767
      vertex 5.27208 -10 12.3553
    endloop
  endfacet
  facet normal 0 -0.707098 -0.707115
    outer loop
      vertex 10 -9.95837 12.3137
      vertex 9.32233 -8.32233 10.6777
      vertex 10.6777 -8.32233 10.6777
    endloop
  endfacet
  facet normal 0 -0.707092 -0.707122
    outer loop
      vertex 10.6777 -8.32233 10.6777
      vertex 20.2721 -10 12.3553
      vertex 14.7279 -10 12.3553
    endloop
  endfacet
  facet normal 0 -0.707092 -0.707122
    outer loop
      vertex 20.2721 -10 12.3553
      vertex 10.6777 -8.32233 10.6777
      vertex 24.3223 -8.32233 10.6777
    endloop
  endfacet
  facet normal 0 -0.707098 -0.707115
    outer loop
      vertex 25 -9.95837 12.3137
      vertex 24.3223 -8.32233 10.6777
      vertex 25.6777 -8.32233 10.6777
    endloop
  endfacet
  facet normal 0 -0.707092 -0.707122
    outer loop
      vertex 25.6777 -8.32233 10.6777
      vertex 35.2721 -10 12.3553
      vertex 29.7279 -10 12.3553
    endloop
  endfacet
  facet normal 0 -0.707092 -0.707122
    outer loop
      vertex 35.2721 -10 12.3553
      vertex 25.6777 -8.32233 10.6777
      vertex 39.3223 -8.32233 10.6777
    endloop
  endfacet
  facet normal 0 -0.707098 -0.707115
    outer loop
      vertex 40 -9.95837 12.3137
      vertex 39.3223 -8.32233 10.6777
      vertex 40.6777 -8.32233 10.6777
    endloop
  endfacet
  facet normal 0 -0.707092 -0.707122
    outer loop
      vertex 40.6777 -8.32233 10.6777
      vertex 50.2721 -10 12.3553
      vertex 44.7279 -10 12.3553
    endloop
  endfacet
  facet normal 0 -0.707092 -0.707122
    outer loop
      vertex 50.2721 -10 12.3553
      vertex 40.6777 -8.32233 10.6777
      vertex 54.3223 -8.32233 10.6777
    endloop
  endfacet
  facet normal 0 -0.707098 -0.707115
    outer loop
      vertex 55 -9.95837 12.3137
      vertex 54.3223 -8.32233 10.6777
      vertex 55.6777 -8.32233 10.6777
    endloop
  endfacet
  facet normal 0 -0.707092 -0.707122
    outer loop
      vertex 55.6777 -8.32233 10.6777
      vertex 65.2721 -10 12.3553
      vertex 59.7279 -10 12.3553
    endloop
  endfacet
  facet normal 0 -0.707092 -0.707122
    outer loop
      vertex 65.2721 -10 12.3553
      vertex 55.6777 -8.32233 10.6777
      vertex 69.3223 -8.32233 10.6777
    endloop
  endfacet
  facet normal 0 -0.707098 -0.707115
    outer loop
      vertex 70 -9.95837 12.3137
      vertex 69.3223 -8.32233 10.6777
      vertex 70.6777 -8.32233 10.6777
    endloop
  endfacet
  facet normal 0 -0.707092 -0.707122
    outer loop
      vertex 70.6777 -8.32233 10.6777
      vertex 80.2721 -10 12.3553
      vertex 74.7279 -10 12.3553
    endloop
  endfacet
  facet normal 0 -0.707092 -0.707122
    outer loop
      vertex 80.2721 -10 12.3553
      vertex 70.6777 -8.32233 10.6777
      vertex 84.3223 -8.32233 10.6777
    endloop
  endfacet
  facet normal 0 -0.707098 -0.707115
    outer loop
      vertex 85 -9.95837 12.3137
      vertex 84.3223 -8.32233 10.6777
      vertex 85.6777 -8.32233 10.6777
    endloop
  endfacet
  facet normal 0 -0.707092 -0.707122
    outer loop
      vertex 85.6777 -8.32233 10.6777
      vertex 95.2721 -10 12.3553
      vertex 89.7279 -10 12.3553
    endloop
  endfacet
  facet normal 0 -0.707092 -0.707122
    outer loop
      vertex 95.2721 -10 12.3553
      vertex 85.6777 -8.32233 10.6777
      vertex 99.3223 -8.32233 10.6777
    endloop
  endfacet
  facet normal 0 -0.707098 -0.707115
    outer loop
      vertex 100 -9.95837 12.3137
      vertex 99.3223 -8.32233 10.6777
      vertex 100.678 -8.32233 10.6777
    endloop
  endfacet
  facet normal -6.62425e-06 -0.7071 -0.707114
    outer loop
      vertex 110 -5.32233 7.67767
      vertex 104.728 -10 12.3553
      vertex 100.678 -8.32233 10.6777
    endloop
  endfacet
  facet normal 0 -0.707104 -0.70711
    outer loop
      vertex 104.728 -10 12.3553
      vertex 110 -5.32233 7.67767
      vertex 110 -10 12.3553
    endloop
  endfacet
  facet normal 0 -0.70711 -0.707103
    outer loop
      vertex 99.3223 -8.32233 10.6777
      vertex 110 -5.32233 7.67767
      vertex 100.678 -8.32233 10.6777
    endloop
  endfacet
  facet normal -0.831458 -0.555587 0
    outer loop
      vertex 24.6194 11.9134 -3
      vertex 23.5355 13.5355 0
      vertex 23.5355 13.5355 -3
    endloop
  endfacet
  facet normal -0.831458 -0.555587 0
    outer loop
      vertex 23.5355 13.5355 0
      vertex 24.6194 11.9134 -3
      vertex 24.6194 11.9134 0
    endloop
  endfacet
  facet normal -0.980785 -0.195091 0
    outer loop
      vertex 25 10 -3
      vertex 24.6194 11.9134 0
      vertex 24.6194 11.9134 -3
    endloop
  endfacet
  facet normal -0.980785 -0.195091 0
    outer loop
      vertex 24.6194 11.9134 0
      vertex 25 10 -3
      vertex 25 10 0
    endloop
  endfacet
  facet normal -0.555587 -0.831458 0
    outer loop
      vertex 21.9134 14.6194 -3
      vertex 23.5355 13.5355 0
      vertex 21.9134 14.6194 0
    endloop
  endfacet
  facet normal -0.555587 -0.831458 -0
    outer loop
      vertex 23.5355 13.5355 0
      vertex 21.9134 14.6194 -3
      vertex 23.5355 13.5355 -3
    endloop
  endfacet
  facet normal -0.83146 0.555585 0
    outer loop
      vertex 23.5355 6.46447 -3
      vertex 24.6194 8.08658 0
      vertex 24.6194 8.08658 -3
    endloop
  endfacet
  facet normal -0.83146 0.555585 0
    outer loop
      vertex 24.6194 8.08658 0
      vertex 23.5355 6.46447 -3
      vertex 23.5355 6.46447 0
    endloop
  endfacet
  facet normal 0.195091 -0.980785 0
    outer loop
      vertex 18.0866 14.6194 -3
      vertex 20 15 0
      vertex 18.0866 14.6194 0
    endloop
  endfacet
  facet normal 0.195091 -0.980785 0
    outer loop
      vertex 20 15 0
      vertex 18.0866 14.6194 -3
      vertex 20 15 -3
    endloop
  endfacet
  facet normal 0.831458 -0.555587 0
    outer loop
      vertex 15.3806 11.9134 0
      vertex 16.4645 13.5355 -3
      vertex 16.4645 13.5355 0
    endloop
  endfacet
  facet normal 0.831458 -0.555587 0
    outer loop
      vertex 16.4645 13.5355 -3
      vertex 15.3806 11.9134 0
      vertex 15.3806 11.9134 -3
    endloop
  endfacet
  facet normal 0.980785 -0.195091 0
    outer loop
      vertex 15 10 0
      vertex 15.3806 11.9134 -3
      vertex 15.3806 11.9134 0
    endloop
  endfacet
  facet normal 0.980785 -0.195091 0
    outer loop
      vertex 15.3806 11.9134 -3
      vertex 15 10 0
      vertex 15 10 -3
    endloop
  endfacet
  facet normal -0.195091 0.980785 0
    outer loop
      vertex 21.9134 5.3806 -3
      vertex 20 5 0
      vertex 21.9134 5.3806 0
    endloop
  endfacet
  facet normal -0.195091 0.980785 0
    outer loop
      vertex 20 5 0
      vertex 21.9134 5.3806 -3
      vertex 20 5 -3
    endloop
  endfacet
  facet normal 0.195091 0.980785 -0
    outer loop
      vertex 20 5 -3
      vertex 18.0866 5.3806 0
      vertex 20 5 0
    endloop
  endfacet
  facet normal 0.195091 0.980785 0
    outer loop
      vertex 18.0866 5.3806 0
      vertex 20 5 -3
      vertex 18.0866 5.3806 -3
    endloop
  endfacet
  facet normal 0.980786 0.195089 0
    outer loop
      vertex 15.3806 8.08658 0
      vertex 15 10 -3
      vertex 15 10 0
    endloop
  endfacet
  facet normal 0.980786 0.195089 0
    outer loop
      vertex 15 10 -3
      vertex 15.3806 8.08658 0
      vertex 15.3806 8.08658 -3
    endloop
  endfacet
  facet normal -0.195091 -0.980785 0
    outer loop
      vertex 20 15 -3
      vertex 21.9134 14.6194 0
      vertex 20 15 0
    endloop
  endfacet
  facet normal -0.195091 -0.980785 -0
    outer loop
      vertex 21.9134 14.6194 0
      vertex 20 15 -3
      vertex 21.9134 14.6194 -3
    endloop
  endfacet
  facet normal -0.980786 0.195089 0
    outer loop
      vertex 24.6194 8.08658 -3
      vertex 25 10 0
      vertex 25 10 -3
    endloop
  endfacet
  facet normal -0.980786 0.195089 0
    outer loop
      vertex 25 10 0
      vertex 24.6194 8.08658 -3
      vertex 24.6194 8.08658 0
    endloop
  endfacet
  facet normal -0.555576 0.831465 0
    outer loop
      vertex 23.5355 6.46447 -3
      vertex 21.9134 5.3806 0
      vertex 23.5355 6.46447 0
    endloop
  endfacet
  facet normal -0.555576 0.831465 0
    outer loop
      vertex 21.9134 5.3806 0
      vertex 23.5355 6.46447 -3
      vertex 21.9134 5.3806 -3
    endloop
  endfacet
  facet normal 0.83146 0.555585 0
    outer loop
      vertex 16.4645 6.46447 0
      vertex 15.3806 8.08658 -3
      vertex 15.3806 8.08658 0
    endloop
  endfacet
  facet normal 0.83146 0.555585 0
    outer loop
      vertex 15.3806 8.08658 -3
      vertex 16.4645 6.46447 0
      vertex 16.4645 6.46447 -3
    endloop
  endfacet
  facet normal 0.555587 -0.831458 0
    outer loop
      vertex 16.4645 13.5355 -3
      vertex 18.0866 14.6194 0
      vertex 16.4645 13.5355 0
    endloop
  endfacet
  facet normal 0.555587 -0.831458 0
    outer loop
      vertex 18.0866 14.6194 0
      vertex 16.4645 13.5355 -3
      vertex 18.0866 14.6194 -3
    endloop
  endfacet
  facet normal 0.555576 0.831465 -0
    outer loop
      vertex 18.0866 5.3806 -3
      vertex 16.4645 6.46447 0
      vertex 18.0866 5.3806 0
    endloop
  endfacet
  facet normal 0.555576 0.831465 0
    outer loop
      vertex 16.4645 6.46447 0
      vertex 18.0866 5.3806 -3
      vertex 16.4645 6.46447 -3
    endloop
  endfacet
  facet normal 0 0 1
    outer loop
      vertex 24.6194 11.9134 -3
      vertex 24.6194 8.08658 -3
      vertex 25 10 -3
    endloop
  endfacet
  facet normal 0 0 1
    outer loop
      vertex 23.5355 13.5355 -3
      vertex 24.6194 8.08658 -3
      vertex 24.6194 11.9134 -3
    endloop
  endfacet
  facet normal 0 0 1
    outer loop
      vertex 23.5355 13.5355 -3
      vertex 23.5355 6.46447 -3
      vertex 24.6194 8.08658 -3
    endloop
  endfacet
  facet normal 0 0 1
    outer loop
      vertex 21.9134 14.6194 -3
      vertex 23.5355 6.46447 -3
      vertex 23.5355 13.5355 -3
    endloop
  endfacet
  facet normal 0 0 1
    outer loop
      vertex 21.9134 14.6194 -3
      vertex 21.9134 5.3806 -3
      vertex 23.5355 6.46447 -3
    endloop
  endfacet
  facet normal 0 0 1
    outer loop
      vertex 20 15 -3
      vertex 21.9134 5.3806 -3
      vertex 21.9134 14.6194 -3
    endloop
  endfacet
  facet normal 0 0 1
    outer loop
      vertex 20 15 -3
      vertex 20 5 -3
      vertex 21.9134 5.3806 -3
    endloop
  endfacet
  facet normal -0 0 1
    outer loop
      vertex 18.0866 14.6194 -3
      vertex 20 5 -3
      vertex 20 15 -3
    endloop
  endfacet
  facet normal 0 0 1
    outer loop
      vertex 18.0866 14.6194 -3
      vertex 18.0866 5.3806 -3
      vertex 20 5 -3
    endloop
  endfacet
  facet normal -0 0 1
    outer loop
      vertex 16.4645 13.5355 -3
      vertex 18.0866 5.3806 -3
      vertex 18.0866 14.6194 -3
    endloop
  endfacet
  facet normal 0 0 1
    outer loop
      vertex 16.4645 13.5355 -3
      vertex 16.4645 6.46447 -3
      vertex 18.0866 5.3806 -3
    endloop
  endfacet
  facet normal -0 0 1
    outer loop
      vertex 15.3806 11.9134 -3
      vertex 16.4645 6.46447 -3
      vertex 16.4645 13.5355 -3
    endloop
  endfacet
  facet normal 0 0 1
    outer loop
      vertex 15.3806 11.9134 -3
      vertex 15.3806 8.08658 -3
      vertex 16.4645 6.46447 -3
    endloop
  endfacet
  facet normal 0 -0 1
    outer loop
      vertex 15.3806 8.08658 -3
      vertex 15.3806 11.9134 -3
      vertex 15 10 -3
    endloop
  endfacet
  facet normal -0.831458 -0.555587 0
    outer loop
      vertex 89.6194 11.9134 -3
      vertex 88.5355 13.5355 0
      vertex 88.5355 13.5355 -3
    endloop
  endfacet
  facet normal -0.831458 -0.555587 0
    outer loop
      vertex 88.5355 13.5355 0
      vertex 89.6194 11.9134 -3
      vertex 89.6194 11.9134 0
    endloop
  endfacet
  facet normal -0.980785 -0.195091 0
    outer loop
      vertex 90 10 -3
      vertex 89.6194 11.9134 0
      vertex 89.6194 11.9134 -3
    endloop
  endfacet
  facet normal -0.980785 -0.195091 0
    outer loop
      vertex 89.6194 11.9134 0
      vertex 90 10 -3
      vertex 90 10 0
    endloop
  endfacet
  facet normal -0.555587 -0.831458 0
    outer loop
      vertex 86.9134 14.6194 -3
      vertex 88.5355 13.5355 0
      vertex 86.9134 14.6194 0
    endloop
  endfacet
  facet normal -0.555587 -0.831458 -0
    outer loop
      vertex 88.5355 13.5355 0
      vertex 86.9134 14.6194 -3
      vertex 88.5355 13.5355 -3
    endloop
  endfacet
  facet normal -0.83146 0.555585 0
    outer loop
      vertex 88.5355 6.46447 -3
      vertex 89.6194 8.08658 0
      vertex 89.6194 8.08658 -3
    endloop
  endfacet
  facet normal -0.83146 0.555585 0
    outer loop
      vertex 89.6194 8.08658 0
      vertex 88.5355 6.46447 -3
      vertex 88.5355 6.46447 0
    endloop
  endfacet
  facet normal 0.195091 -0.980785 0
    outer loop
      vertex 83.0866 14.6194 -3
      vertex 85 15 0
      vertex 83.0866 14.6194 0
    endloop
  endfacet
  facet normal 0.195091 -0.980785 0
    outer loop
      vertex 85 15 0
      vertex 83.0866 14.6194 -3
      vertex 85 15 -3
    endloop
  endfacet
  facet normal 0.831458 -0.555587 0
    outer loop
      vertex 80.3806 11.9134 0
      vertex 81.4645 13.5355 -3
      vertex 81.4645 13.5355 0
    endloop
  endfacet
  facet normal 0.831458 -0.555587 0
    outer loop
      vertex 81.4645 13.5355 -3
      vertex 80.3806 11.9134 0
      vertex 80.3806 11.9134 -3
    endloop
  endfacet
  facet normal 0.980785 -0.195091 0
    outer loop
      vertex 80 10 0
      vertex 80.3806 11.9134 -3
      vertex 80.3806 11.9134 0
    endloop
  endfacet
  facet normal 0.980785 -0.195091 0
    outer loop
      vertex 80.3806 11.9134 -3
      vertex 80 10 0
      vertex 80 10 -3
    endloop
  endfacet
  facet normal -0.195091 0.980785 0
    outer loop
      vertex 86.9134 5.3806 -3
      vertex 85 5 0
      vertex 86.9134 5.3806 0
    endloop
  endfacet
  facet normal -0.195091 0.980785 0
    outer loop
      vertex 85 5 0
      vertex 86.9134 5.3806 -3
      vertex 85 5 -3
    endloop
  endfacet
  facet normal 0.195091 0.980785 -0
    outer loop
      vertex 85 5 -3
      vertex 83.0866 5.3806 0
      vertex 85 5 0
    endloop
  endfacet
  facet normal 0.195091 0.980785 0
    outer loop
      vertex 83.0866 5.3806 0
      vertex 85 5 -3
      vertex 83.0866 5.3806 -3
    endloop
  endfacet
  facet normal 0.980786 0.195089 0
    outer loop
      vertex 80.3806 8.08658 0
      vertex 80 10 -3
      vertex 80 10 0
    endloop
  endfacet
  facet normal 0.980786 0.195089 0
    outer loop
      vertex 80 10 -3
      vertex 80.3806 8.08658 0
      vertex 80.3806 8.08658 -3
    endloop
  endfacet
  facet normal -0.195091 -0.980785 0
    outer loop
      vertex 85 15 -3
      vertex 86.9134 14.6194 0
      vertex 85 15 0
    endloop
  endfacet
  facet normal -0.195091 -0.980785 -0
    outer loop
      vertex 86.9134 14.6194 0
      vertex 85 15 -3
      vertex 86.9134 14.6194 -3
    endloop
  endfacet
  facet normal -0.980786 0.195089 0
    outer loop
      vertex 89.6194 8.08658 -3
      vertex 90 10 0
      vertex 90 10 -3
    endloop
  endfacet
  facet normal -0.980786 0.195089 0
    outer loop
      vertex 90 10 0
      vertex 89.6194 8.08658 -3
      vertex 89.6194 8.08658 0
    endloop
  endfacet
  facet normal -0.555576 0.831465 0
    outer loop
      vertex 88.5355 6.46447 -3
      vertex 86.9134 5.3806 0
      vertex 88.5355 6.46447 0
    endloop
  endfacet
  facet normal -0.555576 0.831465 0
    outer loop
      vertex 86.9134 5.3806 0
      vertex 88.5355 6.46447 -3
      vertex 86.9134 5.3806 -3
    endloop
  endfacet
  facet normal 0.83146 0.555585 0
    outer loop
      vertex 81.4645 6.46447 0
      vertex 80.3806 8.08658 -3
      vertex 80.3806 8.08658 0
    endloop
  endfacet
  facet normal 0.83146 0.555585 0
    outer loop
      vertex 80.3806 8.08658 -3
      vertex 81.4645 6.46447 0
      vertex 81.4645 6.46447 -3
    endloop
  endfacet
  facet normal 0.555587 -0.831458 0
    outer loop
      vertex 81.4645 13.5355 -3
      vertex 83.0866 14.6194 0
      vertex 81.4645 13.5355 0
    endloop
  endfacet
  facet normal 0.555587 -0.831458 0
    outer loop
      vertex 83.0866 14.6194 0
      vertex 81.4645 13.5355 -3
      vertex 83.0866 14.6194 -3
    endloop
  endfacet
  facet normal 0.555576 0.831465 -0
    outer loop
      vertex 83.0866 5.3806 -3
      vertex 81.4645 6.46447 0
      vertex 83.0866 5.3806 0
    endloop
  endfacet
  facet normal 0.555576 0.831465 0
    outer loop
      vertex 81.4645 6.46447 0
      vertex 83.0866 5.3806 -3
      vertex 81.4645 6.46447 -3
    endloop
  endfacet
  facet normal 0 0 1
    outer loop
      vertex 89.6194 11.9134 -3
      vertex 89.6194 8.08658 -3
      vertex 90 10 -3
    endloop
  endfacet
  facet normal 0 0 1
    outer loop
      vertex 88.5355 13.5355 -3
      vertex 89.6194 8.08658 -3
      vertex 89.6194 11.9134 -3
    endloop
  endfacet
  facet normal 0 0 1
    outer loop
      vertex 88.5355 13.5355 -3
      vertex 88.5355 6.46447 -3
      vertex 89.6194 8.08658 -3
    endloop
  endfacet
  facet normal 0 0 1
    outer loop
      vertex 86.9134 14.6194 -3
      vertex 88.5355 6.46447 -3
      vertex 88.5355 13.5355 -3
    endloop
  endfacet
  facet normal 0 0 1
    outer loop
      vertex 86.9134 14.6194 -3
      vertex 86.9134 5.3806 -3
      vertex 88.5355 6.46447 -3
    endloop
  endfacet
  facet normal 0 0 1
    outer loop
      vertex 85 15 -3
      vertex 86.9134 5.3806 -3
      vertex 86.9134 14.6194 -3
    endloop
  endfacet
  facet normal 0 0 1
    outer loop
      vertex 85 15 -3
      vertex 85 5 -3
      vertex 86.9134 5.3806 -3
    endloop
  endfacet
  facet normal -0 0 1
    outer loop
      vertex 83.0866 14.6194 -3
      vertex 85 5 -3
      vertex 85 15 -3
    endloop
  endfacet
  facet normal 0 0 1
    outer loop
      vertex 83.0866 14.6194 -3
      vertex 83.0866 5.3806 -3
      vertex 85 5 -3
    endloop
  endfacet
  facet normal -0 0 1
    outer loop
      vertex 81.4645 13.5355 -3
      vertex 83.0866 5.3806 -3
      vertex 83.0866 14.6194 -3
    endloop
  endfacet
  facet normal 0 0 1
    outer loop
      vertex 81.4645 13.5355 -3
      vertex 81.4645 6.46447 -3
      vertex 83.0866 5.3806 -3
    endloop
  endfacet
  facet normal -0 0 1
    outer loop
      vertex 80.3806 11.9134 -3
      vertex 81.4645 6.46447 -3
      vertex 81.4645 13.5355 -3
    endloop
  endfacet
  facet normal 0 0 1
    outer loop
      vertex 80.3806 11.9134 -3
      vertex 80.3806 8.08658 -3
      vertex 81.4645 6.46447 -3
    endloop
  endfacet
  facet normal 0 -0 1
    outer loop
      vertex 80.3806 8.08658 -3
      vertex 80.3806 11.9134 -3
      vertex 80 10 -3
    endloop
  endfacet
endsolid OpenSCAD_Model
